<?xml version="1.0" encoding="UTF-8"?>
<svg version="1.1" viewBox="0 0 500 500" xmlns="http://www.w3.org/2000/svg">
<path transform="translate(0)" d="m0 0h500v500h-500v-500z" fill="#090619"/>
<path transform="translate(176,133)" d="m0 0v2l2.6875 0.8125c3.1143 1.1164 5.502 2.4738 8.3125 4.1875 1.6911 0.73385 3.3828 1.4666 5.0859 2.1719 3.3782 1.4616 6.6342 3.1594 9.9141 4.8281v2l2.3125 0.625c5.2054 1.941 9.8885 4.5948 14.688 7.375 1.0345 0.55301 1.0345 0.55301 2.0898 1.1172 5.7081 3.4224 8.0164 8.6636 9.9102 14.883 0.57077 5.4212 0.47908 10.747 0.3125 16.188-0.025145 1.4433-0.047947 2.8867-0.068359 4.3301-0.054435 3.495-0.14035 6.9885-0.24414 10.482-7.4489 0.25601-7.4489 0.25601-10.832-1.793-0.64904-0.381-1.2981-0.762-1.9668-1.1545-0.66451-0.4092-1.329-0.81839-2.0137-1.24-1.4013-0.82733-2.8036-1.6529-4.207-2.4766-0.67627-0.40122-1.3525-0.80244-2.0493-1.2158-3.8713-2.2455-7.8959-4.1898-11.931-6.1201v-2c-0.82887-0.25266-1.6577-0.50531-2.5117-0.76562-3.9357-1.3927-7.5774-3.1087-11.301-4.9844-0.70633-0.35344-1.4127-0.70689-2.1404-1.071-4.5542-2.3171-8.8377-4.8151-12.957-7.8547-2.2714-1.4393-4.6215-2.4487-7.1023-3.4739-2.1601-0.92418-4.2616-1.9355-6.3704-2.9714-9.0647-4.4378-17.806-8.3701-27.617-10.879-0.6252-0.18434-1.2504-0.36867-1.8945-0.55859-3.1011-0.65013-6.1961-0.79913-9.3555-1.0039-1.2633-0.083789-2.5266-0.16758-3.8281-0.25391-1.4463-0.090879-1.4463-0.090879-2.9219-0.18359 3.3825-3.8681 7.1164-5.8507 11.625-8.125 1.5192-0.78332 3.0374-1.5685 4.5547-2.3555 0.78729-0.40783 1.5746-0.81565 2.3857-1.2358 4.8735-2.5697 9.6636-5.2925 14.457-8.0088 11.448-6.4349 20.927-7.2471 32.978-1.2749z" fill="#F844A0"/>
<path transform="translate(262,293)" d="m0 0c3.8073-0.14516 6.5555-0.10206 9.9453 1.6797 1.0267 0.52787 1.0267 0.52787 2.0742 1.0664 0.6948 0.37254 1.3896 0.74508 2.1055 1.1289 0.70254 0.3648 1.4051 0.72961 2.1289 1.1055 1.3401 0.69665 2.6778 1.3979 4.0127 2.1045 1.8968 1.0013 3.809 1.9678 5.7334 2.915v2c0.80438 0.22688 1.6088 0.45375 2.4375 0.6875 4.4754 1.6488 8.4497 3.9179 12.562 6.3125v2c2.31 0.33 4.62 0.66 7 1v2c0.85852 0.26555 1.717 0.53109 2.6016 0.80469 3.4275 1.2056 6.5402 2.6678 9.7734 4.3203 1.0596 0.53883 2.1192 1.0777 3.2109 1.6328 0.79664 0.40992 1.5933 0.81984 2.4141 1.2422v2c0.84176 0.26039 1.6835 0.52078 2.5508 0.78906 3.6774 1.2911 7.1356 2.8903 10.637 4.5859 11.215 5.3294 21.198 8.6222 33.625 9.1875 0.88365 0.043184 1.7673 0.086367 2.6777 0.13086 2.1698 0.10556 4.3397 0.20655 6.5098 0.30664-1 2-1 2-3.0664 2.8516-0.82371 0.25523-1.6474 0.51047-2.4961 0.77344-0.82629 0.26039-1.6526 0.52078-2.5039 0.78906-0.63809 0.19336-1.2762 0.38672-1.9336 0.58594v2c-1.98 0.33-3.96 0.66-6 1v2c-1.0274 0.50789-2.0548 1.0158-3.1133 1.5391-7.3326 3.6384-14.612 7.3202-21.75 11.332-6.3972 3.3799-14.225 3.1868-21.098 1.3281-7.5359-3.004-14.56-7.1549-21.57-11.211-2.4674-1.4143-4.9049-2.7652-7.4688-3.9883v-2c-0.65227-0.081211-1.3045-0.16242-1.9766-0.24609-9.38-2.3389-19.852-8.1777-25.895-15.734-2.8662-5.1275-3.3707-9.7948-3.3242-15.605 0.0042448-1.0527 0.0042448-1.0527 0.0085754-2.1266 0.011112-2.221 0.036199-4.4416 0.061737-6.6624 0.010041-1.5143 0.019165-3.0286 0.027344-4.543 0.021941-3.6941 0.056408-7.388 0.097656-11.082z" fill="#228AD9"/>
<path transform="translate(194,292)" d="m0 0h22c0.029729 3.7069 0.029729 3.7069 0.060059 7.4888 0.067254 8.2143 0.14489 16.428 0.22747 24.643 0.049701 4.9746 0.096031 9.9491 0.13435 14.924 0.037187 4.8112 0.083632 9.6222 0.13619 14.433 0.018368 1.8249 0.033539 3.6499 0.04528 5.4749-0.19754 20.065-0.19754 20.065 5.8967 38.849 0.60844 1.1614 1.2169 2.3229 1.8438 3.5195 1.3847 2.7505 1.3847 2.7505 3.6562 3.668l-1 3c-2.2099-1.2472-4.4179-2.4977-6.625-3.75-0.61746-0.34805-1.2349-0.69609-1.8711-1.0547-3.0024-1.7066-5.8981-3.4586-8.7734-5.3789-2.4612-1.6373-4.8315-2.7315-7.5508-3.8555-10.297-4.5394-20.992-9.7279-25.539-20.663-1.4062-5.0415-1.0871-10.341-1.0746-15.536-0.0052418-1.2759-0.010484-2.5519-0.015884-3.8665-0.0064111-2.6941-0.0065442-5.3874 0.0034332-8.0815 0.011462-3.4261-0.0086918-6.8512-0.037917-10.277-0.022932-3.3-0.015887-6.5998-0.012132-9.8998-0.011234-1.217-0.022468-2.434-0.034042-3.6878 0.063871-7.8835 0.59548-16.032 6.4755-21.885 3.7052-3.0021 7.396-4.8989 12.055-6.0635v-2z" fill="#2793D2"/>
<path transform="translate(264,89)" d="m0 0c0.52336 0.26297 1.0467 0.52594 1.5859 0.79688 1.8345 0.91431 3.674 1.8188 5.5156 2.7188 6.2028 3.0533 12.252 6.1656 18.125 9.8242 2.2224 1.3303 4.4498 2.5726 6.7344 3.7891 16.743 8.9658 16.743 8.9658 20.039 18.871 0.26743 2.7738 0.26743 2.7738 0.29053 5.825 0.01276 1.1486 0.025519 2.2971 0.038666 3.4805 0.0022256 1.2334 0.0044513 2.4668 0.0067444 3.7375 0.0066568 1.2788 0.013314 2.5576 0.020172 3.8751 0.011954 2.7058 0.015683 5.4115 0.014496 8.1174-2.0246e-4 3.4418 0.027031 6.8828 0.061544 10.324 0.027803 3.3111 0.026423 6.622 0.028788 9.9332 0.014371 1.2233 0.028742 2.4465 0.043549 3.7068-0.04414 8.3522-1.1038 15.688-6.399 22.403-0.63293 0.5066-1.2659 1.0132-1.918 1.5352-0.6252 0.52465-1.2504 1.0493-1.8945 1.5898-6.69 4.2966-11.921 4.8794-19.73 4.6602-0.92232-0.013535-1.8446-0.02707-2.7949-0.041016-2.2565-0.035075-4.5117-0.084221-6.7676-0.14648 0.0045243-1.5274 0.0045243-1.5274 0.00914-3.0856 0.024085-9.6916 0.010664-19.383-0.037606-29.074-0.02365-4.9802-0.034999-9.9598-0.016212-14.94 0.77578-34.793 0.77578-34.793-12.955-65.9v-2z" fill="#F84E96"/>
<path transform="translate(132,229)" d="m0 0v3l3.5625-1.5c5.3119-1.9674 9.4179-2.3383 14.75-0.125 4.364 2.6387 5.388 4.7548 6.6875 9.625 1.4277 16.169 1.4277 16.169-2.5547 22.449-3.7878 4.0642-7.9341 6.3016-13.477 6.8516-2.6774 0.010351-5.3016-0.076441-7.9688-0.30078v8l2.4375 0.4375c2.5625 0.5625 2.5625 0.5625 3.5625 1.5625v5h-23v-8h5l-1-36-4-2v-7c5.5707-1.5916 10.211-2.2067 16-2z" fill="#F6F5F6"/>
<path transform="translate(248,83)" d="m0 0c2.1875 2 2.1875 2 4 5 0.44473 0.67418 0.88945 1.3484 1.3477 2.043 3.6523 5.5853 3.6523 5.5853 3.6523 7.957 0.99 0.33 1.98 0.66 3 1 1.7622 3.1486 2.8319 6.593 4 10 0.30422 0.87527 0.60844 1.7505 0.92188 2.6523 2.2313 7.1677 2.3987 13.881 2.0781 21.348-3.7441-0.63132-6.0084-1.5875-9.1133-3.7852-2.2986-1.4801-4.6784-2.6429-7.1367-3.8398-6.3264-3.0996-12.464-6.4998-18.606-9.9478-0.73831-0.41427-1.4766-0.82854-2.2373-1.2554-0.65678-0.37028-1.3136-0.74057-1.9902-1.1221-1.9488-1.0678-3.9224-2.0685-5.916-3.0498v-2c-0.59168-0.18176-1.1834-0.36352-1.793-0.55078-8.512-2.7077-8.512-2.7077-12.207-5.4492v-2h2v-2c4.1008-2.3526 8.1211-4.639 12.5-6.4375 3.8016-1.6971 6.93-3.8203 10.289-6.2578 4.6732-2.7577 9.9381-2.8069 15.211-2.3047z" fill="#F69442"/>
<path transform="translate(401,292)" d="m0 0c0.04972 4.5715 0.08587 9.1429 0.10986 13.715 0.010011 1.5528 0.023623 3.1055 0.041016 4.6582 0.024468 2.2417 0.035654 4.4831 0.044434 6.7249 0.010323 0.68571 0.020645 1.3714 0.031281 2.0779 0.0010718 4.6837-0.7249 8.437-2.2266 12.824-2.8723 2.8723-11.025 1.2959-15.062 1.3125-0.68201 0.0039478-1.364 0.0078955-2.0667 0.011963-10.44 0.028394-19.96-0.77826-29.871-4.3245v-2l-10-3v-2c0.99-0.33 1.98-0.66 3-1l2-3c2.2585-1.2595 4.478-2.4034 6.8125-3.5 4.9958-2.3872 4.9958-2.3872 9.8242-5.0938 2.3633-1.4062 2.3633-1.4062 4.8633-2.4023 3.6128-1.4508 6.7281-3.5731 10-5.6641 2.543-1.3629 4.6596-1.929 7.5-2.3398v-2c1.98-0.33 3.96-0.66 6-1v-2c3.4352-2.2901 4.9853-2.1784 9-2z" fill="#1978E3"/>
<path transform="translate(225,364)" d="m0 0c3.8625 0.7553 7.2018 2.3948 10.75 4.0625 1.1705 0.54785 2.3409 1.0957 3.5469 1.6602 0.89203 0.42152 1.7841 0.84305 2.7031 1.2773v2c0.85594 0.2591 1.7119 0.5182 2.5938 0.78516 3.536 1.2611 6.6239 2.8354 9.9062 4.6523 3.1802 1.7529 6.3485 3.4873 9.6016 5.1016 2.6844 1.3531 5.2177 2.8189 7.7734 4.3984 4.2793 2.6 8.6146 4.8908 13.125 7.0625v2c-1.0035 0.49307-1.0035 0.49307-2.0273 0.99609-7.161 3.5468-14.234 7.2336-21.271 11.019-0.69682 0.37262-1.3936 0.74524-2.1116 1.1292-0.62012 0.33363-1.2402 0.66725-1.8792 1.011-4.4514 2.1974-8.8922 3.2571-13.711 1.8445-9.4987-8.6093-18.508-27.404-19.168-40.273-0.017-2.9172 0.032796-5.8128 0.16797-8.7266z" fill="#43C5AE"/>
<path transform="translate(130,293)" d="m0 0v60c-6-1-6-1-8-2v-2c-0.66387-0.081211-1.3277-0.16242-2.0117-0.24609-3.9716-1.002-7.2341-2.8402-10.801-4.8164-0.69287-0.37705-1.3857-0.7541-2.0996-1.1426-1.6992-0.92576-3.394-1.8595-5.0879-2.7949v-2c-0.86625-0.092812-0.86625-0.092812-1.75-0.1875-3.3294-1.2023-4.4722-2.7836-6.25-5.8125-0.57104-9.327 7.4297-18.997 13-26h2v-2c6.7524-7.3482 10.708-11 21-11z" fill="#1B7EE1"/>
<path transform="translate(362,143)" d="m0 0c4.1467 1.3822 7.5594 2.6656 11.375 4.625 0.87398 0.44602 1.748 0.89203 2.6484 1.3516 0.65227 0.33773 1.3045 0.67547 1.9766 1.0234v2c2.97 0.495 2.97 0.495 6 1v2l2.875 0.9375c3.125 1.0625 3.125 1.0625 5.125 2.0625v2h2v2h2c1.701 2.6015 2.0127 3.8477 1.75 7-0.6555 2.622-1.4069 4.672-2.75 7h-2c-0.26426 0.71285-0.52852 1.4257-0.80078 2.1602-3.4306 8.1238-8.2629 14.495-15.199 19.84l-2.25 2.25c-1.75 1.75-1.75 1.75-4.75 3.75h-8v-61z" fill="#F832B6"/>
<path transform="translate(94,164)" d="m0 0c4.2134-0.050064 8.4267-0.086028 12.64-0.10986 1.4284-0.0099541 2.8568-0.023522 4.2852-0.041016 11.598-0.13831 22.379 0.055617 32.762 5.7759 0.61811 0.32484 1.2362 0.64969 1.873 0.98438 1.4868 0.78375 2.9643 1.5852 4.4395 2.3906v2c-5.9184 3.2089-11.843 6.4029-17.812 9.5156-0.82718 0.432-1.6544 0.86399-2.5066 1.3091-1.625 0.84745-3.2515 1.6923-4.8794 2.5342-4.4451 2.32-8.7096 4.8002-12.938 7.4941-2.6806 1.6495-5.4702 3.0264-8.3015 4.397-3.5158 1.5262-3.5158 1.5262-6.5625 3.75-1.9996 0.040808-4.0005 0.042544-6 0-0.074454-4.7322-0.12874-9.4641-0.16479-14.197-0.015037-1.6081-0.035472-3.2162-0.061523-4.8242-0.03661-2.3186-0.053459-4.6367-0.06665-6.9556-0.015484-0.71274-0.030968-1.4255-0.046921-2.1598-0.0015659-4.7009 0.94902-7.832 3.3399-11.864z" fill="#F628C2"/>
<path transform="translate(322.81 211.94)" d="m0 0c0.97582 0.0090234 1.9516 0.018047 2.957 0.027344 0.73605 0.011602 1.4721 0.023203 2.2305 0.035156 1.4227 2.8454 1.2197 5.3622 1.3164 8.5391 0.041895 1.302 0.083789 2.6039 0.12695 3.9453 0.039814 1.3802 0.079526 2.7604 0.11914 4.1406 0.043194 1.388 0.086809 2.7761 0.13086 4.1641 0.10636 3.4035 0.20839 6.8072 0.30664 10.211 4.3463-2.8327 4.3463-2.8327 6.332-7.2031-0.17145-0.67547-0.34289-1.3509-0.51953-2.0469l-0.8125-3.75c1.8212-1.8212 4.3067-1.1324 6.7266-1.1367 1.1254 0.0058008 1.1254 0.0058008 2.2734 0.011719 0.75023-0.0038672 1.5005-0.0077344 2.2734-0.011719 5.6 0.010108 5.6 0.010108 6.7266 1.1367 0.36719 2.2617 0.36719 2.2617 0 5-2.1172 2.457-2.1172 2.457-4.875 4.8125-0.90492 0.7902-1.8098 1.5804-2.7422 2.3945-2.3828 1.793-2.3828 1.793-4.3828 1.793 0.18829 2.4448 0.18829 2.4448 1 5 0.5891 0.26941 1.1782 0.53883 1.7852 0.81641 3.0796 1.6457 4.4219 3.8962 6.4023 6.7461 2.226 3.3649 2.226 3.3649 4.8125 6.4375 0.040638 1.6662 0.042721 3.3339 0 5-4.4764 0.60583-8.5486 0.86958-13 0-3.2326-2.878-5.2273-6.0677-7-10v-2h-2c-1.625-2.5-1.625-2.5-3-5-0.080968 1.4574-0.13918 2.9161-0.1875 4.375-0.034805 0.81211-0.069609 1.6242-0.10547 2.4609 0.09668 0.71414 0.19336 1.4283 0.29297 2.1641l3 2v6h-21v-8h4c-0.068724-5.3756-0.15661-10.75-0.26245-16.125-0.033299-1.8293-0.061315-3.6588-0.083984-5.4883-0.033455-2.6266-0.085764-5.2522-0.14185-7.8784-0.0095849-1.2313-0.0095849-1.2313-0.019363-2.4875-0.031778-2.5464-0.031778-2.5464-0.49236-6.0203l-3-2c-0.1875-3.625-0.1875-3.625 0-7 3.6739-0.85298 7.0447-1.1079 10.812-1.0625z" fill="#F4F4F5"/>
<path transform="translate(111,220)" d="m0 0-1 14h-6c-1.1346-1.5236-2.2669-3.0492-3.3672-4.5977-3.3919-2.9131-8.3516-2.3873-12.633-2.4023l1 7c0.69094 0.26039 1.3819 0.52078 2.0938 0.78906 3.2486 1.3536 6.3033 2.9257 9.4062 4.5859 1.6552 0.87785 1.6552 0.87785 3.3438 1.7734 3.0484 1.7883 5.6594 3.3455 8.1562 5.8516 1.0844 4.5799 1.0935 9.7014-0.95703 14.012-3.4225 4.3134-7.7219 6.8854-13.043 7.9883-2.9559 0.2135-5.912 0.18511-8.875 0.1875-0.7902 0.012246-1.5804 0.024492-2.3945 0.037109-4.6478 0.0116-8.3574-0.44586-12.73-2.2246-0.026854-2.3124-0.046328-4.625-0.0625-6.9375-0.011602-1.2878-0.023203-2.5755-0.035156-3.9023 0.097656-3.1602 0.097656-3.1602 1.0977-4.1602 2.333-0.040929 4.6671-0.042417 7 0l2 6 13 1-1-5-2-1v-2l-2.5-0.1875c-6.5231-1.5143-11.994-5.1096-15.652-10.789-1.6652-3.9749-1.5896-7.8285-0.84766-12.023 2.3567-4.8947 5.3281-7.3162 10-10 8.6267-2.8756 17.687-0.97765 26 2z" fill="#F2F2F3"/>
<path transform="translate(194.62 231)" d="m0 0c3.8614 2.9665 6.1193 6.2949 7.375 11 0.65826 5.9412 0.4933 11.488-2 17-0.37125 0.84562-0.7425 1.6912-1.125 2.5625-2.8158 3.6606-5.4876 5.8761-9.875 7.4375-13.594 1.3994-13.594 1.3994-19-2v-2c-0.99-0.33-1.98-0.66-3-1-4.6838-7.0926-5.2046-14.047-3.5273-22.336 1.6438-5.1381 4.4181-8.2257 8.5273-11.664 6.708-2.4137 16.374-2.5147 22.625 1z" fill="#F2F2F3"/>
<path transform="translate(272.86 228.89)" d="m0 0c1.1861 0.0078552 1.1861 0.0078552 2.3962 0.015869 1.281 0.004834 1.281 0.004834 2.5879 0.0097656 0.89783 0.0083789 1.7957 0.016758 2.7207 0.025391 0.9017 0.0045117 1.8034 0.0090234 2.7324 0.013672 2.2351 0.011826 4.4701 0.028306 6.7051 0.048828v7h-4c0.36094 0.96422 0.72188 1.9284 1.0938 2.9219 0.46909 1.2759 0.93782 2.552 1.4062 3.8281 0.23848 0.63422 0.47695 1.2684 0.72266 1.9219 1.2254 3.361 1.7773 5.6968 1.7773 9.3281h2l0.25-2.4375c0.81686-3.8801 2.2087-7.049 3.9102-10.609 0.97152-1.905 0.97152-1.905 0.83984-3.9531-0.99-0.33-1.98-0.66-3-1-0.042544-1.9995-0.040808-4.0004 0-6 1-1 1-1 4.1602-1.0977 1.9317 0.017402 1.9317 0.017402 3.9023 0.035156 1.2904 0.0090234 2.5807 0.018047 3.9102 0.027344 0.99902 0.011602 1.998 0.023203 3.0273 0.035156 0.35411 6.156-0.44282 10.056-3.25 15.5-0.32065 0.65291-0.64131 1.3058-0.97168 1.9785-0.91109 1.848-1.844 3.6851-2.7783 5.5215l-1.25 2.5c-0.91667 1.8333-1.8333 3.6667-2.75 5.5-0.67096 1.5991-0.67096 1.5991-1.3555 3.2305-1.6912 3.9777-3.6652 7.7749-5.707 11.582-0.5269 1.0006-0.5269 1.0006-1.0645 2.0215-1.4394 2.6965-2.6993 4.9922-4.873 7.166-3.144-0.10841-4.3515-1.289-6.8125-3.3125-2.1875-2.6875-2.1875-2.6875-2.3125-4.6875 1.125-2 1.125-2 3.75-4.3125 2.6889-2.473 2.6889-2.473 2.5-5.75-1.0084-4.4045-2.9252-8.524-4.7148-12.656-1.4799-3.4435-2.8661-6.9124-4.2227-10.406-0.62842-1.6126-0.62842-1.6126-1.2695-3.2578-0.91797-2.6172-0.91797-2.6172-0.91797-4.6172h-2c-0.042721-1.6661-0.040638-3.3338 0-5 1-1 1-1 2.8577-1.1135z" fill="#F1F0F2"/>
<path transform="translate(408,229)" d="m0 0c4.2457 1.6201 6.3608 4.0927 8.9375 7.75 1.3659 4.1781 1.3237 7.8965 1.0625 12.25-14.597 4.5923-14.597 4.5923-22 4 0.69512 2.6968 0.69512 2.6968 3 5 5.4118 0.80365 10.69 0.17781 16-1l1 8c-7.645 3.3177-15.765 6.3586-24.086 3.2109-2.8178-1.8006-3.8482-3.0133-4.9141-6.2109h-2c-3.2621-7.3396-2.7153-16.281-1-24h2l0.1875-1.75c3.2467-8.9909 14.097-8.0077 21.812-7.25z" fill="#F2F2F4"/>
<path transform="translate(254,221)" d="m0 0v9h12v8h-12c0.14046 2.9587 0.28712 5.9168 0.4375 8.875 0.039316 0.84176 0.078633 1.6835 0.11914 2.5508 0.041895 0.80566 0.083789 1.6113 0.12695 2.4414 0.036658 0.74363 0.073315 1.4873 0.11108 2.2534 0.10488 1.968 0.10488 1.968 1.2053 3.8794 2.5861 0.46833 2.5861 0.46833 5.5625 0.625 1.0119 0.074766 2.0238 0.14953 3.0664 0.22656 0.78246 0.048984 1.5649 0.097969 2.3711 0.14844v8c-6.2096 2.258-12.428 2.9228-19 2-3.7231-2.6281-5.1985-4.6063-6-9-0.079528-1.7329-0.10774-3.4685-0.097656-5.2031 0.0032227-0.97969 0.0064453-1.9594 0.0097656-2.9688 0.0083789-1.0158 0.016758-2.0316 0.025391-3.0781 0.0045117-1.0312 0.0090234-2.0625 0.013672-3.125 0.011767-2.5417 0.028208-5.0833 0.048828-7.625h-5c-0.3125-2.6875-0.3125-2.6875 0-6 2-2.5 2-2.5 5-5 0.65098-0.5427 1.302-1.0854 1.9727-1.6445 5.4571-4.3555 5.4571-4.3555 10.027-4.3555z" fill="#F6F6F7"/>
<path transform="translate(369.73 211.97)" d="m0 0c1.4815 0.0067676 1.4815 0.0067676 2.9929 0.013672 1.1269 0.0087012 1.1269 0.0087012 2.2766 0.017578 0.010307 0.58438 0.020615 1.1688 0.031235 1.7708 0.10794 6.0667 0.22255 12.133 0.34108 18.2 0.043388 2.2659 0.08506 4.5319 0.125 6.7979 0.057609 3.2517 0.12133 6.5033 0.18628 9.7549 0.016712 1.0177 0.033425 2.0355 0.050644 3.0841 0.019945 0.94082 0.03989 1.8816 0.06044 2.851 0.023316 1.2458 0.023316 1.2458 0.047104 2.5167 0.03587 2.0936 0.03587 2.0936 1.1582 4.0248l3 1v6h-22v-7l5-1-1-38-4-2v-7c3.957-0.85556 7.7-1.0552 11.73-1.0312z" fill="#FAFAFB"/>
<path transform="translate(222,229)" d="m0 0v4l2.6875-2c3.3125-2 3.3125-2 8.3125-2v11h-11c0.032946 3.2736 0.10003 6.5403 0.1875 9.8125 0.0058008 0.92877 0.011602 1.8575 0.017578 2.8145 0.082998 2.5545 0.19633 4.8869 0.79492 7.373 2.4479 1.8614 2.4479 1.8614 5 3v5h-22v-7h4l-1-21-4-2v-7c5.838-1.6983 10.931-2.2529 17-2z" fill="#F6F6F7"/>
<path transform="translate(362,222)" d="m0 0h1v38l-5 1v7h22v1c-0.65073 0.025056-1.3015 0.050112-1.9719 0.075928-2.9471 0.11601-5.8938 0.23871-8.8406 0.36157-1.0242 0.039316-2.0483 0.078633-3.1035 0.11914-0.98291 0.041895-1.9658 0.083789-2.9785 0.12695-1.359 0.054987-1.359 0.054987-2.7454 0.11108-2.5106 0.12614-2.5106 0.12614-5.3601 1.2053v-2c-0.95262 0.034805-1.9052 0.069609-2.8867 0.10547-1.2543 0.02707-2.5085 0.054141-3.8008 0.082031-1.8621 0.052207-1.8621 0.052207-3.7617 0.10547-3.7634-0.31051-5.6452-0.90958-8.5508-3.293v-3h-2v6h-22v-1h21v-6l-4-2v-10c1.3756 1.2897 2.7077 2.6269 4 4v2h2c0.96321 1.799 1.8953 3.6147 2.8125 5.4375 2.2703 3.7677 3.2509 5.2961 7.5391 6.5156 3.2566 0.21285 6.3931 0.25737 9.6484 0.046875-1.3434-4.8579-3.3665-8.2088-6.4375-12.188-0.78246-1.0248-1.5649-2.0496-2.3711-3.1055-2.025-2.6269-2.025-2.6269-3.9766-4.3828-1.2148-1.3242-1.2148-1.3242-1.2148-4.3242 1.9688-1.8242 1.9688-1.8242 4.5-3.6875 0.83531-0.62262 1.6706-1.2452 2.5312-1.8867 0.97453-0.70576 0.97453-0.70576 1.9688-1.4258l1 2c0.5543-0.15598 1.1086-0.31195 1.6797-0.47266 0.72445-0.19465 1.4489-0.3893 2.1953-0.58984 0.7193-0.19723 1.4386-0.39445 2.1797-0.59766 1.9453-0.33984 1.9453-0.33984 3.9453 0.66016l1-16z" fill="#161425"/>
<path transform="translate(264,89)" d="m0 0c0.52336 0.26297 1.0467 0.52594 1.5859 0.79688 1.8345 0.91431 3.674 1.8188 5.5156 2.7188 6.2028 3.0533 12.252 6.1656 18.125 9.8242 2.2224 1.3303 4.4498 2.5726 6.7344 3.7891 14.854 7.954 14.854 7.954 19.164 15.961 1.2768 4.2465 1.0854 8.3167 1 12.723-0.0090234 0.88365-0.018047 1.7673-0.027344 2.6777-0.02346 2.17-0.059328 4.3399-0.097656 6.5098-2.2784-3.4176-2.5259-6.047-3-10-0.30019-2.2933-0.61357-4.5849-0.9375-6.875-0.1534-1.1318-0.3068-2.2636-0.46484-3.4297-0.19723-0.88945-0.39445-1.7789-0.59766-2.6953l-2-1v-2l-4 2-0.5625-3.375c-1.0584-3.8863-1.0584-3.8863-4.5625-5.0625-4.0793-0.59215-7.7625-0.7068-11.875-0.5625v-7c-2.9163-0.25022-2.9163-0.25022-6 0-2.2292 3.3439-2.1677 3.6051-1.5664 7.3047 0.82401 6.6771 0.20462 13.141-0.37109 19.82-0.099902 1.2427-0.1998 2.4853-0.30273 3.7656-0.24531 3.0372-0.49873 6.0735-0.75977 9.1094h-2c0.0063648-0.64735 0.012729-1.2947 0.019287-1.9617 0.034851-11.977-0.37583-23.247-4.2693-34.663-0.28754-0.84458-0.57508-1.6892-0.87134-2.5593-1.951-5.2735-4.5266-9.3192-7.8787-13.816v-2z" fill="#EC9646"/>
<path transform="translate(313,221)" d="m0 0c0.99 0.33 1.98 0.66 3 1v38h-4v7l-2-2h-3c-1.0202-0.97939-2.0215-1.979-3-3h-2c-0.28875 0.59812-0.5775 1.1962-0.875 1.8125-1.125 2.1875-1.125 2.1875-3.125 5.1875h-3c2.9712-10.213 7.7654-19.849 12.707-29.246 1.1905-2.5357 1.7424-4.3677 1.9805-7.1289l0.3125-3.625-15 1v-2l16-1 2-6z" fill="#0D0B1B"/>
<path transform="translate(344,320)" d="m0 0 2 1-4 1v2l10 3v2c1.155 0.12375 2.31 0.2475 3.5 0.375 2.7833 0.29821 5.2031 0.8314 7.9062 1.625 6.0888 1.562 12.343 1.4666 18.594 1.625 1.8775 0.058008 1.8775 0.058008 3.793 0.11719 3.0689 0.093706 6.1377 0.17942 9.207 0.25781v1c-1.2646 0.12117-2.5291 0.24234-3.832 0.36719-1.6602 0.16883-3.3204 0.33813-4.9805 0.50781-0.83338 0.078633-1.6668 0.15727-2.5254 0.23828-0.80244 0.083789-1.6049 0.16758-2.4316 0.25391-0.73839 0.073315-1.4768 0.14663-2.2375 0.22217-2.2993 0.3438-2.2993 0.3438-4.9929 2.4106-2.1875 0.625-2.1875 0.625-4 1 0.92684 0.048984 1.8537 0.097969 2.8086 0.14844 1.7963 0.11215 1.7963 0.11215 3.6289 0.22656 1.7924 0.10441 1.7924 0.10441 3.6211 0.21094 0.97066 0.13664 1.9413 0.27328 2.9414 0.41406l1 2c-11.439 0.43484-21.197 0.3005-32-4-0.83273-0.30035-1.6655-0.6007-2.5234-0.91016-7.4239-2.775-14.434-6.4775-21.477-10.09 3.6357-1.0786 4.6466-0.67668 8 1 3.167 0.16725 3.167 0.16725 6 0l1-2h-3l1-5c0.99-0.33 1.98-0.66 3-1z" fill="#050C27"/>
<path transform="translate(348,336)" d="m0 0c1.5101 0.524 1.5101 0.524 3.0508 1.0586 11.054 3.6413 21.34 4.8012 32.949 4.9414-1 2-1 2-3.0664 2.8516-0.82371 0.25523-1.6474 0.51047-2.4961 0.77344-0.82629 0.26039-1.6526 0.52078-2.5039 0.78906-0.63809 0.19336-1.2762 0.38672-1.9336 0.58594v2c-1.98 0.33-3.96 0.66-6 1v2c-1.0274 0.50789-2.0548 1.0158-3.1133 1.5391-7.3326 3.6384-14.612 7.3202-21.75 11.332-6.3972 3.3799-14.225 3.1868-21.098 1.3281-7.5359-3.004-14.56-7.1549-21.57-11.211-2.4674-1.4143-4.9049-2.7652-7.4688-3.9883v-4l4 2v2l4 1v2l3.1875 0.4375c2.9671 0.43777 5.8804 0.94055 8.8125 1.5625v2c0.5543 0.20496 1.1086 0.40992 1.6797 0.62109 0.72445 0.26941 1.4489 0.53883 2.1953 0.81641 0.7193 0.26684 1.4386 0.53367 2.1797 0.80859 1.9453 0.75391 1.9453 0.75391 3.9453 1.7539v2c2.2713-0.30904 4.542-0.62235 6.8125-0.9375 1.2646-0.17402 2.5291-0.34805 3.832-0.52734 3.3387-0.43908 3.3387-0.43908 6.3555-1.5352v2h3l-1-3c0.57492-0.12246 1.1498-0.24492 1.7422-0.37109 2.3373-0.65106 4.2429-1.5564 6.3828-2.6914 3.6544-1.9375 3.6544-1.9375 5.875-1.9375v-2h3l2-3c2.0234-0.87891 2.0234-0.87891 4.375-1.5625 3.0604-0.90585 5.8038-1.9367 8.625-3.4375h-6v-2c-1.4463 0.17789-1.4463 0.17789-2.9219 0.35938l-3.8281 0.39062-3.7969 0.42188c-3.4531-0.17188-3.4531-0.17188-5.9062-2.0312-1.5469-2.1406-1.5469-2.1406-1.5469-4.1406h-2v-2z" fill="#3796BE"/>
<path transform="translate(106,289)" d="m0 0h3c0.6875 2.25 0.6875 2.25 1 5-1.4375 2.3125-1.4375 2.3125-3 4 2.31 0.33 4.62 0.66 7 1-1.375 2.5-1.375 2.5-3 5h-2v2c-1.2882 1.377-2.628 2.7064-4 4l-3 3v-4h2l1-5-2-1v-2h-3l-0.25 2.375c-0.75 2.625-0.75 2.625-2.8125 3.9375l-1.9375 0.6875v2h-2l-1 5c-2.0156-1.3594-2.0156-1.3594-4-4-0.36949-3.4475-0.054024-6.8044 0.25-10.25 0.065742-0.93586 0.13148-1.8717 0.19922-2.8359 0.16472-2.3061 0.35526-4.6104 0.55078-6.9141l17-1v-1z" fill="#030A2D"/>
<path transform="translate(94,164)" d="m0 0c4.2134-0.050064 8.4267-0.086028 12.64-0.10986 1.4284-0.0099541 2.8568-0.023522 4.2852-0.041016 11.598-0.13831 22.379 0.055617 32.762 5.7759 0.61811 0.32484 1.2362 0.64969 1.873 0.98438 1.4868 0.78375 2.9643 1.5852 4.4395 2.3906v2c-2.041 1.1053-4.0829 2.2092-6.125 3.3125-1.137 0.61488-2.2739 1.2298-3.4453 1.8633-3.12 1.6595-6.2614 3.2593-9.4297 4.8242v-2h2l0.1875-1.8125c1.1362-3.0589 2.9858-3.7379 5.8125-5.1875l-1-2 2-1c-8.0391-6.6241-19.276-5.252-29.125-5.125-1.3516 0.010057-2.7031 0.019178-4.0547 0.027344-3.2736 0.023383-6.5469 0.056156-9.8203 0.097656-3.542 8.624-4.1306 16.781-4.5625 26-0.043184 0.87012-0.086367 1.7402-0.13086 2.6367-0.10488 2.121-0.20614 4.2421-0.30664 6.3633h5v1h-6c-0.074454-4.7322-0.12874-9.4641-0.16479-14.197-0.015037-1.6081-0.035472-3.2162-0.061523-4.8242-0.03661-2.3186-0.053459-4.6367-0.06665-6.9556-0.015484-0.71274-0.030968-1.4255-0.046921-2.1598-0.0015659-4.7009 0.94902-7.832 3.3399-11.864z" fill="#F93AAB"/>
<path transform="translate(254,91)" d="m0 0h3c5.3713 9.41 5.3713 9.41 7 14 1.2629-3.9542 1.2629-3.9542 2-8-1.2435-2.3831-1.2435-2.3831-3-4v-2c4.5671 1.8346 5.6681 4.4162 7.625 8.7623 5.7148 13.456 7.0778 24.925 6.8633 39.394-0.0093528 1.8828-0.016457 3.7657-0.021439 5.6486-0.018876 4.8992-0.067804 9.7977-0.12352 14.697-0.051617 5.0216-0.074084 10.043-0.099182 15.065-0.053244 9.8115-0.13831 19.622-0.24414 29.434h-1v-84l-5 1-2-7-1 20c-0.99-0.33-1.98-0.66-3-1h2c-0.18779-9.97-1.9509-27.951-9.5-35.5-1.9346-1.9346-2.6022-3.9447-3.5-6.5z" fill="#3E142B"/>
<path transform="translate(176,336)" d="m0 0h1l1 33 2 1c0.47438 0.80438 0.94875 1.6088 1.4375 2.4375 1.4591 2.7981 1.4591 2.7981 4.5625 4.5625l3-1c0.99 0.33 1.98 0.66 3 1l-4 1v4c4.6082 3.2219 4.6082 3.2219 9.9375 3.75l2.0625-0.75v5c2.97 0.66 5.94 1.32 9 2v2c3.6099-0.65585 3.6099-0.65585 7-2 0.65772-3.0293 0.65772-3.0293 1-6 1.2406 2.4627 2.4537 4.9363 3.6562 7.418 0.61444 1.2566 1.229 2.5131 1.8438 3.7695 0.30809 0.64131 0.61617 1.2826 0.93359 1.9434 1.5845 3.569 1.5845 3.569 4.5664 5.8691l-1 3c-2.2099-1.2472-4.4179-2.4977-6.625-3.75-0.61746-0.34805-1.2349-0.69609-1.8711-1.0547-3.0024-1.7066-5.8981-3.4586-8.7734-5.3789-2.4612-1.6373-4.8315-2.7315-7.5508-3.8555-10.592-4.6695-20.891-9.8022-25.548-20.963-1.0862-3.4336-1.0009-6.7659-0.92505-10.338 0.0042448-0.76696 0.0084897-1.5339 0.012863-2.3241 0.016655-2.4249 0.05428-4.8489 0.092606-7.2735 0.015064-1.6543 0.028749-3.3086 0.041016-4.9629 0.032894-4.0335 0.084582-8.0664 0.14648-12.1z" fill="#46B3B1"/>
<path transform="translate(194,292)" d="m0 0h22v79h-1c-0.010307-0.58564-0.020615-1.1713-0.031235-1.7747-0.11026-6.2322-0.22461-12.464-0.34108-18.697-0.042663-2.3096-0.084367-4.6191-0.125-6.9287-0.28022-15.879-0.76188-31.736-1.5027-47.6-0.58275-0.0082077-1.1655-0.016415-1.7659-0.024872-0.77866-0.010967-1.5573-0.021934-2.3596-0.033234-0.81116-0.011098-1.6223-0.022196-2.4581-0.03363-1.6947-0.024602-3.3894-0.054958-5.0839-0.08844-1.0889-0.0074927-1.0889-0.0074927-2.1997-0.015137-0.74363-0.010474-1.4873-0.020947-2.2534-0.031738-2.1243 0.060491-2.1243 0.060491-3.8794 2.2271l-0.6875 2c-2.0282 3.0906-4.8437 3.1328-8.3125 4-2.652 2.652-3.5845 5.5536-5 9l-1 2c-0.15176 1.5926-0.249 3.1906-0.31641 4.7891-0.041895 0.94102-0.083789 1.882-0.12695 2.8516-0.039316 0.98484-0.078633 1.9697-0.11914 2.9844-0.043184 0.99258-0.086367 1.9852-0.13086 3.0078-0.10625 2.4556-0.20829 4.9113-0.30664 7.3672h-1c-0.11772-3.7914-0.18775-7.5823-0.25-11.375-0.033516-1.0609-0.067031-2.1218-0.10156-3.2148-0.087174-7.1047 0.65295-13.213 4.3516-19.41 4.0896-4.0773 8.3564-6.5891 14-8v-2z" fill="#1C4E93"/>
<path transform="translate(180,176)" d="m0 0 12 1v5l-1-2h-2l1 2c0.99 0.33 1.98 0.66 3 1v2l2.3125-0.625c2.6875-0.375 2.6875-0.375 5.6875 1.625l-1 2 8 1 1 3c5.9238 1.159 11.007 0.73884 17 0v-16c0.99 0.33 1.98 0.66 3 1v25h-6l-1-3h-3.5625c-7.5253-0.75976-14.016-5.2856-20.438-9v-2c-0.83789-0.25523-1.6758-0.51047-2.5391-0.77344-3.793-1.3443-7.2632-3.0167-10.836-4.8516-0.64066-0.32484-1.2813-0.64969-1.9414-0.98438-1.5631-0.7932-3.1236-1.5914-4.6836-2.3906l2-1v-2z" fill="#EB20D4"/>
<path transform="translate(176,238)" d="m0 0h10c2.8289 4.7869 3.3585 8.2827 3.25 13.812-0.0051562 0.67998-0.010312 1.36-0.015625 2.0605-0.079312 4.9719-0.079312 4.9719-1.2344 6.127-1.9609 0.27344-1.9609 0.27344-4.375 0.375-1.1872 0.073477-1.1872 0.073477-2.3984 0.14844-2.2266-0.52344-2.2266-0.52344-4.0039-2.4961-1.6364-4.0517-1.5514-7.52-1.4102-11.84 0.013535-0.78826 0.02707-1.5765 0.041016-2.3887 0.03515-1.9332 0.088951-3.8661 0.14648-5.7988z" fill="#090618"/>
<path transform="translate(130,293)" d="m0 0v60c-6-1-6-1-8-2v-2c-0.66387-0.081211-1.3277-0.16242-2.0117-0.24609-3.9716-1.002-7.2341-2.8402-10.801-4.8164-0.69287-0.37705-1.3857-0.7541-2.0996-1.1426-1.6992-0.92576-3.394-1.8595-5.0879-2.7949v-2l-4-1 2-1 2.25 0.9375c3.0937 1.1953 5.4624 1.2154 8.75 1.0625l1 4 4 1v2l4-1v2l8-3v-47c-1.98 0.66-3.96 1.32-6 2-1.6609 0.36106-3.3262 0.70462-5 1l-1 3-4-1c1.2894-1.1484 2.5816-2.2937 3.875-3.4375 0.7193-0.63809 1.4386-1.2762 2.1797-1.9336 4.3454-3.6386 4.9861-2.6289 11.945-2.6289z" fill="#2F74BC"/>
<path transform="translate(141,238)" d="m0 0c2.5048 1.8786 2.987 2.961 4 6 0.095112 2.3526 0.12987 4.708 0.125 7.0625 0.0025781 1.2491 0.0051562 2.4982 0.0078125 3.7852-0.13281 3.1523-0.13281 3.1523-1.1328 5.1523h-11v-21c3.0017-1.0006 4.8759-1.3124 8-1z" fill="#110F1E"/>
<path transform="translate(278,166)" d="m0 0h1c-0.032552 1.9531-0.065104 3.9062-0.097656 5.8594 0.019364 2.1136 0.019364 2.1136 0.59375 3.9844 1.7812 7.6217 0.73221 16.479-0.49609 24.156 12.626 0.2894 12.626 0.2894 25-2v-6h7c0.16808-2.1041 0.33442-4.2082 0.5-6.3125 0.13922-1.7576 0.13922-1.7576 0.28125-3.5508 0.1424-2.0419 0.21875-4.0898 0.21875-6.1367h2l1-3c0.91894 15.683 0.91894 15.683-3.5156 21.426-4.71 4.9951-9.88 9.1233-16.925 9.8132-2.6719 0.055063-5.3257 0.023492-7.9971-0.051514-1.3835-0.020303-1.3835-0.020303-2.7949-0.041016-2.2565-0.035075-4.5117-0.084221-6.7676-0.14648-0.024715-4.9296-0.042867-9.8592-0.054932-14.789-0.0050295-1.6771-0.011854-3.3542-0.020508-5.0312-0.012126-2.4102-0.017803-4.8204-0.022217-7.2307-0.0051613-0.7501-0.010323-1.5002-0.01564-2.273-3.4134e-4 -3.1657 0.10442-5.6496 1.1133-8.6762z" fill="#D92AC2"/>
<path transform="translate(203,230)" d="m0 0h5c-0.99 0.33-1.98 0.66-3 1v7l1.9375 0.4375c2.0625 0.5625 2.0625 0.5625 3.0625 1.5625 0.086856 1.5617 0.10702 3.1273 0.097656 4.6914-0.0032227 0.94424-0.0064453 1.8885-0.0097656 2.8613-0.0083789 0.99322-0.016758 1.9864-0.025391 3.0098-0.0045117 0.99709-0.0090234 1.9942-0.013672 3.0215-0.011828 2.4721-0.02831 4.944-0.048828 7.416h-4v7h22v1h-23v-10h-2c-2.9216-4.3824-2.0515-8.3115-1.875-13.457-0.12615-3.5755-0.82597-6.2294-2.125-9.543l1.4375-1.3125c1.7994-1.7106 1.7994-1.7106 2.5625-4.6875z" fill="#12101E"/>
<path transform="translate(176,133)" d="m0 0v2l2.6875 0.8125c3.1143 1.1164 5.502 2.4738 8.3125 4.1875 2.3267 1.0153 4.6603 2.0149 7 3 2.0072 0.98538 4.0098 1.9806 6 3v1c-5.75 0.125-5.75 0.125-8-1v-2h-15c0-3 0-3 1-6-5.3571-2.3091-8.2156-3.3256-14-2-2.6739 0.097233-5.3232 0.046152-8 0v-4l-2.0625 2.0625c-2.9375 1.9375-2.9375 1.9375-6.75 1.6875l-3.1875-0.75c9.8912-8.4781 20.738-7.5813 32-2z" fill="#F16C75"/>
<path transform="translate(362,143)" d="m0 0c4.1467 1.3822 7.5594 2.6656 11.375 4.625 0.87398 0.44602 1.748 0.89203 2.6484 1.3516 0.65227 0.33773 1.3045 0.67547 1.9766 1.0234v2c2.97 0.495 2.97 0.495 6 1v2l2.875 0.9375c3.125 1.0625 3.125 1.0625 5.125 2.0625v2h2v2h2c1.7375 2.6573 2.0083 3.896 1.75 7.125-0.75 2.875-0.75 2.875-2.75 4.875l-0.4375-3.25c-0.60302-5.4583-0.60302-5.4583-3.5625-9.75-2.3177-0.71927-4.651-1.391-7-2v-3l-2.625-0.8125c-3.375-1.1875-3.375-1.1875-6.5-2.9375-2.7059-1.5298-2.7059-1.5298-5-0.6875l-1.875 1.4375c-0.6832 0.48855-1.3664 0.97711-2.0703 1.4805-2.9304 3.8261-2.6033 7.571-2.6797 12.27-0.029648 0.88816-0.059297 1.7763-0.089844 2.6914-0.070525 2.1863-0.1233 4.3715-0.16016 6.5586h-1v-33z" fill="#E3518F"/>
<path transform="translate(401,292)" d="m0 0c0.04972 4.5715 0.08587 9.1429 0.10986 13.715 0.010011 1.5528 0.023623 3.1055 0.041016 4.6582 0.024468 2.2417 0.035654 4.4831 0.044434 6.7249 0.010323 0.68571 0.020645 1.3714 0.031281 2.0779 0.0010718 4.6837-0.7249 8.437-2.2266 12.824-2.8723 2.8723-11.025 1.2959-15.062 1.3125-0.68201 0.0039478-1.364 0.0078955-2.0667 0.011963-10.44 0.028394-19.96-0.77826-29.871-4.3245v-1c9.41-0.18451 9.41-0.18451 14 1v2h32c0.84509-8.1531 0.84509-8.1531 1.0977-16.227-0.0032227-1.0506-0.0064453-2.1012-0.0097656-3.1836-0.0083789-1.0609-0.016758-2.1218-0.025391-3.2148-0.0045117-1.0996-0.0090234-2.1991-0.013672-3.332-0.011657-2.681-0.028018-5.362-0.048828-8.043-0.99-0.33-1.98-0.66-3-1-0.39188 0.4602-0.78375 0.92039-1.1875 1.3945-2.1916 1.9413-4.0048 2.5033-6.8125 3.293-1.2994 0.37705-1.2994 0.37705-2.625 0.76172-2.375 0.55078-2.375 0.55078-5.375 0.55078v2l-4-1c1.2891-0.67155 2.5814-1.3371 3.875-2 0.7193-0.37125 1.4386-0.7425 2.1797-1.125 1.9453-0.875 1.9453-0.875 3.9453-0.875v-2c1.98-0.33 3.96-0.66 6-1v-2c3.4352-2.2901 4.9853-2.1784 9-2z" fill="#2673D5"/>
<path transform="translate(78,242)" d="m0 0 2.375 2.25c4.0306 3.4008 8.7047 5.0094 13.625 6.75v2c0.99 0.33 1.98 0.66 3 1v5c-1.7701 0.081141-3.5412 0.13926-5.3125 0.1875-0.98613 0.034805-1.9723 0.069609-2.9883 0.10547-2.6992-0.29297-2.6992-0.29297-4.5117-1.668-1.3539-1.8527-1.8-3.3777-2.1875-5.625l-3.3125 0.1875c-3.6875-0.1875-3.6875-0.1875-5.6875-1.375-1-1.8125-1-1.8125-0.6875-4.5 0.22688-0.76312 0.45375-1.5262 0.6875-2.3125l1 2h2l2-4z" fill="#0F0D1C"/>
<path transform="translate(225,364)" d="m0 0c3.8625 0.7553 7.2018 2.3948 10.75 4.0625 1.1705 0.54785 2.3409 1.0957 3.5469 1.6602 0.89203 0.42152 1.7841 0.84305 2.7031 1.2773v2l2.8125 0.8125c2.9499 1.099 4.2437 1.8117 6.1875 4.1875-4.4653-0.65345-8.7297-1.5218-13-3l-2-3-2 3-2.125 1.5625c-2.9299 3.8088-2.1938 7.7968-1.875 12.438-5.1323-7.6984-5.418-15.99-5-25z" fill="#3CA9B4"/>
<path transform="translate(400,184)" d="m0 0h2v20h-17l2.75-3.1875c1.9062-2.2119 3.7226-4.4296 5.5-6.75 0.5775-0.68062 1.155-1.3612 1.75-2.0625h2l0.375-2.3125c0.625-2.6875 0.625-2.6875 2.625-5.6875z" fill="#AD23A0"/>
<path transform="translate(344,320)" d="m0 0 2 1-4 1v2l10 3v2c1.155 0.12375 2.31 0.2475 3.5 0.375 4.2835 0.52779 8.3335 1.509 12.5 2.625v1h-10v-2c-1.9849 0.26676-1.9849 0.26676-4 1l-1 3c-9.7677 0.13954-16.703-3.3612-25-8 3.6357-1.0786 4.6466-0.67668 8 1 3.167 0.16725 3.167 0.16725 6 0l1-2h-3l1-5c0.99-0.33 1.98-0.66 3-1z" fill="#070519"/>
<path transform="translate(293,347)" d="m0 0 4 2v2l4 1v2l3.1875 0.4375c2.9671 0.43777 5.8804 0.94055 8.8125 1.5625v2c0.5543 0.20496 1.1086 0.40992 1.6797 0.62109 0.72445 0.26941 1.4489 0.53883 2.1953 0.81641 0.7193 0.26684 1.4386 0.53367 2.1797 0.80859 1.9453 0.75391 1.9453 0.75391 3.9453 1.7539v2c2.2713-0.30904 4.542-0.62235 6.8125-0.9375 1.2646-0.17402 2.5291-0.34805 3.832-0.52734 3.3387-0.43908 3.3387-0.43908 6.3555-1.5352v2c0.99 0.33 1.98 0.66 3 1-5.8253 4.0338-11.126 3.8009-18 3-8.7722-2.4019-16.705-7.4836-24.531-12.012-2.4674-1.4143-4.9049-2.7652-7.4688-3.9883v-4z" fill="#39A2BA"/>
<path transform="translate(329,250)" d="m0 0c1.3756 1.2897 2.7077 2.6269 4 4v2h2c0.96321 1.799 1.8953 3.6147 2.8125 5.4375 2.2703 3.7677 3.2509 5.2961 7.5391 6.5156 3.2566 0.21285 6.3931 0.25737 9.6484 0.046875 0.18562-0.89719 0.18562-0.89719 0.375-1.8125 0.625-2.1875 0.625-2.1875 2.625-5.1875v7h22v1c-0.65073 0.025056-1.3015 0.050112-1.9719 0.075928-2.9471 0.11601-5.8938 0.23871-8.8406 0.36157-1.5362 0.058975-1.5362 0.058975-3.1035 0.11914-0.98291 0.041895-1.9658 0.083789-2.9785 0.12695-0.90597 0.036658-1.8119 0.073315-2.7454 0.11108-2.5106 0.12614-2.5106 0.12614-5.3601 1.2053v-2c-0.95262 0.034805-1.9052 0.069609-2.8867 0.10547-1.2543 0.02707-2.5085 0.054141-3.8008 0.082031-1.8621 0.052207-1.8621 0.052207-3.7617 0.10547-3.7634-0.31051-5.6452-0.90958-8.5508-3.293v-3h-2v6h-22v-1h21v-6l-4-2v-10z" fill="#42404B"/>
<path transform="translate(144,135)" d="m0 0-2 6h-4v3c-0.55301-0.22172-1.106-0.44344-1.6758-0.67188-3.2774-0.46269-4.7346 0.69899-7.5117 2.4219-0.88043 0.53109-1.7609 1.0622-2.668 1.6094-2.4208 1.5339-2.4208 1.5339-3.1445 4.6406h6v2c0.80438 0.12375 1.6088 0.2475 2.4375 0.375l2.5625 0.625 1 2c-6.6051-0.88915-6.6051-0.88915-8.7812-1.5-3.1405-0.70772-6.2587-0.85444-9.4688-1.0625-1.2633-0.083789-2.5266-0.16758-3.8281-0.25391-1.4463-0.090879-1.4463-0.090879-2.9219-0.18359 3.4594-3.9923 7.4309-6.0274 12.062-8.375 1.5238-0.78707 3.0472-1.5748 4.5703-2.3633 1.1142-0.57355 1.1142-0.57355 2.251-1.1587 3.749-1.9541 7.4292-4.032 11.112-6.1069 2.0039-0.99609 2.0039-0.99609 4.0039-0.99609z" fill="#EF5691"/>
<path transform="translate(262,293)" d="m0 0c3.79-0.14148 6.5568-0.10137 9.9453 1.6445 1.0267 0.5211 1.0267 0.5211 2.0742 1.0527 1.0422 0.55204 1.0422 0.55204 2.1055 1.1152 0.70254 0.35643 1.4051 0.71285 2.1289 1.0801 3.4783 1.7918 6.7083 3.6126 9.7461 6.1074-0.59168-0.083789-1.1834-0.16758-1.793-0.25391-4.3064-0.55499-7.9626-0.97836-12.207 0.25391l-1.125-2.9375-1.875-3.0625c-3.0598-0.7394-3.0598-0.7394-6-1-0.19777 3.3953-0.3814 6.7913-0.5625 10.188-0.056074 0.95971-0.11215 1.9194-0.16992 2.9082-0.04834 0.93135-0.09668 1.8627-0.14648 2.8223-0.047131 0.8536-0.094263 1.7072-0.14282 2.5867 0.022858 2.6251 0.48017 4.9323 1.0217 7.4954 0.038246 2.333 0.045743 4.6671 0 7l2 1h-3c-1.8322-4.6851-2.2354-8.5695-2.1953-13.586 0.0042448-1.0527 0.0042448-1.0527 0.0085754-2.1266 0.011112-2.221 0.036199-4.4416 0.061737-6.6624 0.010041-1.5143 0.019165-3.0286 0.027344-4.543 0.021941-3.6941 0.056408-7.388 0.097656-11.082z" fill="#2D71CD"/>
<path transform="translate(88,227)" d="m0 0c9.73-0.92018 9.73-0.92018 12.844 1.3359 1.3438 1.6641 1.3438 1.6641 3.1562 4.6641l-2 1 1.5 1.25c1.5 1.75 1.5 1.75 1.5 5.75l4-1-2 4c-3.0013-1.4798-5.9705-3.0152-8.9375-4.5625-0.85014-0.4183-1.7003-0.8366-2.5762-1.2676-2.3673-1.2544-4.4499-2.4267-6.4863-4.1699-1.0664-3.8398-1.0664-3.8398-1-7z" fill="#302E39"/>
<path transform="translate(91,292)" d="m0 0h16v3c-1.4351 0.93452-2.8747 1.8633-4.3398 2.75-1.9356 1.4574-3.0574 2.9971-4.4102 5-0.7425 1.0725-1.485 2.145-2.25 3.25h-2l-2 6h-1v-20z" fill="#2959BB"/>
<path transform="translate(114,279)" d="m0 0h1v5h26c-1.4303 2.8606-3.1445 3.6371-6 5-2.8125-0.3125-2.8125-0.3125-5-1v5c-3.96 0.66-7.92 1.32-12 2l-1-2h3l-1-6-5-1v-7z" fill="#100E1E"/>
<path transform="translate(294,230)" d="m0 0h1v6l4 1c-1.8676 5.7221-3.8529 11.377-6 17h-2c-0.65161-1.873-1.296-3.7485-1.9375-5.625-0.53947-1.5662-0.53947-1.5662-1.0898-3.1641-0.93016-3.0706-1.5201-6.0384-1.9727-9.2109h4l1-4 2 1 1-3z" fill="#0E0C1B"/>
<path transform="translate(217,386)" d="m0 0c1.2406 2.4627 2.4537 4.9363 3.6562 7.418 0.61444 1.2566 1.229 2.5131 1.8438 3.7695 0.30809 0.64131 0.61617 1.2826 0.93359 1.9434 1.5845 3.569 1.5845 3.569 4.5664 5.8691l-1 3c-7.8571-4.4036-15.607-8.8368-23-14l3-2 2 1c1.9264 0.75244 1.9264 0.75244 4 1 3.3146-1.7089 3.3146-1.7089 3.6875-5.125l0.3125-2.875z" fill="#45C0A3"/>
<path transform="translate(230,113)" d="m0 0c6.1651 0.6422 12.186 1.829 17.188 5.6875 1.7863 1.5815 1.7863 1.5815 4.375 1.1875l2.4375 0.125c1.8188 2.3833 3 3.9582 3 7l8 2 1-9h1v13c-4.3377-0.86754-5.7425-1.3955-9.0977-3.7773-2.3813-1.5305-4.8578-2.7325-7.4023-3.9727-7.0183-3.4386-13.752-7.3167-20.5-11.25v-1z" fill="#E57962"/>
<path transform="translate(180,176)" d="m0 0 12 1v5l-1-2h-2l1 2c0.99 0.33 1.98 0.66 3 1v2l2.3125-0.625c2.6875-0.375 2.6875-0.375 5.6875 1.625l-1 2 8 1 1 5h5l1 4c-3.8961-1.489-7.591-3.2438-11.312-5.125-1.0686-0.53883-2.1373-1.0777-3.2383-1.6328-1.2124-0.61488-1.2124-0.61488-2.4492-1.2422v-2c-0.83789-0.25523-1.6758-0.51047-2.5391-0.77344-3.793-1.3443-7.2632-3.0167-10.836-4.8516-0.64066-0.32484-1.2813-0.64969-1.9414-0.98438-1.5631-0.7932-3.1236-1.5914-4.6836-2.3906l2-1v-2z" fill="#E22AB4"/>
<path transform="translate(393,176)" d="m0 0h1c-0.087087 1.4595-0.19527 2.9177-0.3125 4.375-0.058008 0.81211-0.11602 1.6242-0.17578 2.4609-0.51172 2.1641-0.51172 2.1641-3.5117 4.1641-0.73343 3.0656-0.73343 3.0656-1 6 0.59812-0.33 1.1962-0.66 1.8125-1 2.1875-1 2.1875-1 5.1875-1l-1-4c0.99-0.33 1.98-0.66 3-1v-2h2c-0.30938 0.5775-0.61875 1.155-0.9375 1.75-1.1361 2.1364-1.1361 2.1364-1.375 4.1875-1.4958 4.4875-5.9309 7.419-9.6875 10.062l-2-7c-0.72188 0.80438-1.4438 1.6088-2.1875 2.4375-2.8377 2.5854-4.0842 3.2429-7.8125 3.5625 0.95117-1.1725 1.9112-2.3379 2.875-3.5 0.53367-0.64969 1.0673-1.2994 1.6172-1.9688 0.49758-0.50531 0.99516-1.0106 1.5078-1.5312h2c0.38479-0.79664 0.38479-0.79664 0.77734-1.6094 1.5023-2.9375 3.133-5.7847 4.7852-8.6406 0.62004-1.0777 1.2401-2.1553 1.8789-3.2656 0.51434-0.81984 1.0287-1.6397 1.5586-2.4844z" fill="#190526"/>
<path transform="translate(137,167)" d="m0 0c5.6539-0.34616 9.0301 0.56575 14 3v2h2v3h-2v3c-2.25 2.25-2.25 2.25-5 4-2.3125-0.25-2.3125-0.25-4-1v2c-2.2444 1.0352-4.4941 2.0531-6.75 3.0625-0.63422 0.29455-1.2684 0.5891-1.9219 0.89258-4.7791 2.1157-4.7791 2.1157-7.7812 1.7285-0.51047-0.22559-1.0209-0.45117-1.5469-0.68359 1.2162-0.65355 1.2162-0.65355 2.457-1.3203 1.1073-0.59555 2.2146-1.1911 3.3555-1.8047 0.5837-0.31332 1.1674-0.62665 1.7688-0.94946 4.7847-2.5723 9.5359-5.2021 14.274-7.8591 2.1445-1.0664 2.1445-1.0664 4.1445-1.0664v-2c-4.304-1.7485-8.6475-3.377-13-5v-1z" fill="#360832"/>
<path transform="translate(296,107)" d="m0 0c8.4063 2.8897 14.389 7.3727 19 15 0.94137 2.8241 1.1173 4.5292 1.0977 7.4492-0.0032227 0.84756-0.0064453 1.6951-0.0097656 2.5684-0.0083789 0.88107-0.016758 1.7621-0.025391 2.6699-0.0045117 0.89268-0.0090234 1.7854-0.013672 2.7051-0.011778 2.2025-0.028226 4.4049-0.048828 6.6074-2.2784-3.4176-2.5259-6.047-3-10-0.30019-2.2933-0.61357-4.5849-0.9375-6.875-0.1534-1.1318-0.3068-2.2636-0.46484-3.4297-0.19723-0.88945-0.39445-1.7789-0.59766-2.6953l-2-1v-2l-4 2-0.5625-3.375-1.4375-3.625c-3.514-1.5409-3.514-1.5409-7-2v-4z" fill="#E3835A"/>
<path transform="translate(226,168)" d="m0 0 1 2h3c1.1794 3.5383 1.1129 6.3415 1.0977 10.074-0.001415 0.68383-0.0028299 1.3677-0.0042877 2.0722-0.0055898 2.1804-0.01814 4.3607-0.030869 6.5411-0.0050163 1.4798-0.009579 2.9596-0.013672 4.4395-0.011015 3.6244-0.028273 7.2487-0.048828 10.873-7.6523 0.15625-7.6523 0.15625-11.438-2.5-0.67934-0.46406-1.3587-0.92812-2.0586-1.4062-0.49629-0.36094-0.99258-0.72188-1.5039-1.0938 2-1 2-1 4.0625-0.6875 1.9375 0.6875 1.9375 0.6875 2.9375 2.6875 1.98 0.33 3.96 0.66 6 1l-1-25h-3c-0.625-3.375-0.625-3.375-1-7l2-2z" fill="#C52FA8"/>
<path transform="translate(98,336)" d="m0 0c1.5836 0.31128 3.1668 0.62407 4.75 0.9375 0.88172 0.17402 1.7634 0.34805 2.6719 0.52734 2.2105 0.45884 4.3932 0.96852 6.5781 1.5352v3l4 1v2l4-1v2l8-3c1 1 1 1 1.0625 4.5625l-0.0625 3.4375c-3.7681-0.51383-6.6728-1.1852-10-3l-3.125-1.3125c-4.7353-2.0014-9.2956-4.3563-13.875-6.6875v-2l-4-1v-1z" fill="#2B80B9"/>
<path transform="translate(260,292)" d="m0 0h7v1h-5c0.069255 4.4297 0.1574 8.8584 0.26245 13.287 0.033088 1.5041 0.061169 3.0084 0.083984 4.5127 0.033846 2.1726 0.086171 4.3442 0.14185 6.5164 0.026184 1.304 0.052368 2.6079 0.079346 3.9514 0.61647 5.3213 2.5099 9.7728 5.6199 14.17 0.59812 0.84562 1.1962 1.6912 1.8125 2.5625l-5-1-2-7h-2c-1.5865-3.1729-1.1208-6.5883-1.0977-10.07 0.001415-0.79623 0.0028299-1.5925 0.0042877-2.4128 0.0056051-2.5473 0.018158-5.0946 0.030869-7.6419 0.0050144-1.7253 0.0095774-3.4505 0.013672-5.1758 0.011036-4.2331 0.028304-8.4661 0.048828-12.699z" fill="#09204D"/>
<path transform="translate(414,251)" d="m0 0-2 1c-0.22609 2.1236-0.22609 2.1236 1.5 3.625l1.5 1.375c-3.6658 1.6729-6.5998 2.2959-10.625 2.3125-0.94102 0.016758-1.882 0.033516-2.8516 0.050781-2.5234-0.36328-2.5234-0.36328-4.3594-1.6953-1.1641-1.668-1.1641-1.668-1.1641-4.668 0.84305-0.13277 1.6861-0.26555 2.5547-0.40234 1.0957-0.1766 2.1914-0.3532 3.3203-0.53516 1.6358-0.26104 1.6358-0.26104 3.3047-0.52734 6.4957-1.2326 6.4957-1.2326 8.8203-0.53516z" fill="#141121"/>
<path transform="translate(362,176)" d="m0 0h1v27c5.1899-1.7219 5.1899-1.7219 10-4v-2h2l0.625-2.4375 1.375-2.5625c3.125-0.8125 3.125-0.8125 6-1l0.4375-2.375c0.5625-2.625 0.5625-2.625 1.5625-4.625h2c-1.1633 8.4047-8.3376 13.515-14.496 18.75-2.5039 1.25-2.5039 1.25-10.504 1.25v-28z" fill="#BD2BAD"/>
<path transform="translate(99,318)" d="m0 0h1c-0.065104 2.0182-0.13021 4.0365-0.19531 6.0547 0.011996 2.1839 0.011996 2.1839 2.1953 3.9453v3h-3v3c0.99-0.33 1.98-0.66 3-1 1.7075 1.2806 3.3737 2.6177 5 4 0.99 0.33 1.98 0.66 3 1-3.7862 1.4656-6.0976 0.77861-9.6875-0.75-3.3251-1.4977-4.2116-2.0986-6.3125-5.25 0.22021-5.7253 2.0152-9.2822 5-14z" fill="#1F7FD6"/>
<path transform="translate(315,184)" d="m0 0h1c0.72931 3.0432 1.2253 5.867 1 9-1.7425 2.486-3.3334 3.3791-6 5h-2l-1 3c-4.7229 4.5432-9.0377 4.4257-15.414 4.3516-1.1421-0.033516-2.2842-0.067031-3.4609-0.10156-1.1653-0.018047-2.3306-0.036094-3.5312-0.054688-2.8654-0.046974-5.7292-0.11265-8.5938-0.19531v-1c0.84595-0.014019 0.84595-0.014019 1.709-0.02832 2.5978-0.054255 5.194-0.13779 7.791-0.22168 0.88688-0.01418 1.7738-0.028359 2.6875-0.042969 8.772-0.3225 15.672-3.2875 21.812-9.707 1.6075-3.25 2.8642-6.5592 4-10z" fill="#3D0746"/>
<path transform="translate(371,202)" d="m0 0h2v3l-4 1 1 3-4 1c2.97 0.33 5.94 0.66 9 1v1c-2.6245 0.2212-5.2487 0.42747-7.875 0.625-0.74637 0.064453-1.4927 0.12891-2.2617 0.19531-1.9503 0.14056-3.908 0.16729-5.8633 0.17969l-2-2-1 2 1-4 5-1v-4c2.0508-0.22786 4.1016-0.45573 6.1523-0.68359 1.8591-0.13527 1.8591-0.13527 2.8477-1.3164z" fill="#171524"/>
<path transform="translate(220,226)" d="m0 0h9v1l5 1v13h-11v19h-1v-20h11v-11c-3.8665 1.041-7.4946 2.037-11 4v-4h-6l4-1v-2z" fill="#383641"/>
<path transform="translate(350,237)" d="m0 0c1.0547 1.8281 1.0547 1.8281 2 4-0.875 2.75-0.875 2.75-2 5h-4l1 3 2 1c0.40729 2.3216 0.74439 4.6569 1 7-3.276-3.1546-6.2363-6.3918-9-10v-3c1.9688-1.8242 1.9688-1.8242 4.5-3.6875 0.83531-0.62262 1.6706-1.2452 2.5312-1.8867 0.97453-0.70576 0.97453-0.70576 1.9688-1.4258z" fill="#1F1D2B"/>
<path transform="translate(373,148)" d="m0 0 5 2v2c2.97 0.495 2.97 0.495 6 1v2l2.875 0.9375c3.125 1.0625 3.125 1.0625 5.125 2.0625v2h2v2h2c1.7375 2.6573 2.0083 3.896 1.75 7.125-0.75 2.875-0.75 2.875-2.75 4.875l-0.4375-3.25c-0.60302-5.4583-0.60302-5.4583-3.5625-9.75-2.3177-0.71927-4.651-1.391-7-2v-3c-0.88688-0.22688-1.7738-0.45375-2.6875-0.6875-3.7601-1.4899-5.6753-3.2875-8.3125-6.3125v-1z" fill="#D84996"/>
<path transform="translate(209,240)" d="m0 0h1v21h-4v7h22v1h-23v-10h-2c-2-3-2-3-1.8125-5 0.91191-2.2447 1.9978-3.422 3.8125-5l-1 8c2.5108-1.2554 2.8713-2.5006 4-5l-0.0625 2.9375c-0.29368 2.9372-0.29368 2.9372 1.0625 4.0625v-19z" fill="#42404D"/>
<path transform="translate(273,106)" d="m0 0h2c0.99 3.63 1.98 7.26 3 11h2c0.17238 9.0403-0.36683 17.989-1 27h-2c-0.021874-1.0574-0.021874-1.0574-0.044189-2.1362-0.075253-3.2468-0.17165-6.4926-0.26831-9.7388-0.033838-1.6629-0.033838-1.6629-0.068359-3.3594-0.2039-6.3022-0.89231-11.784-2.9871-17.747-0.63208-2.019-0.63208-2.019-0.63208-5.019z" fill="#EF776F"/>
<path transform="translate(94,164)" d="m0 0h31v1c-9.24 0.33-18.48 0.66-28 1l-2 5-2 1-1 31h5v1h-6c-0.074454-4.7322-0.12874-9.4641-0.16479-14.197-0.015037-1.6081-0.035472-3.2162-0.061523-4.8242-0.03661-2.3186-0.053459-4.6367-0.06665-6.9556-0.015484-0.71274-0.030968-1.4255-0.046921-2.1598-0.0017228-5.1721 0.84571-6.8753 3.3399-11.864z" fill="#C13A9C"/>
<path transform="translate(176,306)" d="m0 0h2c-0.162 0.86654-0.32401 1.7331-0.49092 2.6259-0.48006 3.1818-0.64226 6.1465-0.65434 9.3602-0.0063798 1.1582-0.01276 2.3164-0.019333 3.5096-0.0011128 1.2376-0.0022256 2.4753-0.0033722 3.7504-0.0033284 1.2845-0.0066568 2.569-0.010086 3.8923-0.0059685 2.7124-0.0078422 5.4248-0.0072479 8.1372 1.0162e-4 3.4609-0.013562 6.9216-0.030772 10.382-0.013846 3.321-0.01321 6.642-0.014394 9.9631-0.0071855 1.2356-0.014371 2.4712-0.021774 3.7442 0.015706 5.9284 0.18641 11.051 2.2522 16.635l-2-1v-3h-2c-0.023126-8.7184-0.040916-17.437-0.051812-26.155-0.0052282-4.0479-0.012325-8.0958-0.023627-12.144-0.010831-3.9033-0.016838-7.8066-0.019438-11.71-0.0018539-1.4924-0.0054738-2.9848-0.010853-4.4772-0.0072132-2.0833-0.0082608-4.1666-0.0077953-6.2499-0.0022206-1.188-0.0044412-2.3761-0.0067291-3.6001 0.12025-2.6638 0.12025-2.6638 1.1203-3.6638z" fill="#021830"/>
<path transform="translate(198.79 292.9)" d="m0 0c0.84772 0.0024976 1.6954 0.0049951 2.5688 0.0075684 1.6172 0.013656 1.6172 0.013656 3.2671 0.027588l10.375 0.0625v27h-1l-1-24c-5.4148 0.078826-5.4148 0.078826-10.829 0.18018-6.9036 0.05069-6.9036 0.05069-10.171-2.1802 2.4528-1.2264 4.0506-1.1142 6.7891-1.0977z" fill="#2F66D6"/>
<path transform="translate(348,336)" d="m0 0c1.0068 0.34934 2.0135 0.69867 3.0508 1.0586 11.054 3.6413 21.34 4.8012 32.949 4.9414l-1 2c-0.58008-0.011602-1.1602-0.023203-1.7578-0.035156-4.542-0.052465-8.7693 0.11765-13.242 1.0352v-2c-1.4463 0.17789-1.4463 0.17789-2.9219 0.35938-1.8949 0.19336-1.8949 0.19336-3.8281 0.39062l-3.7969 0.42188c-3.4531-0.17188-3.4531-0.17188-5.9062-2.0312-1.5469-2.1406-1.5469-2.1406-1.5469-4.1406h-2v-2z" fill="#2592D2"/>
<path transform="translate(155,236)" d="m0 0 4 1v3l5 1-1 11c-0.99-0.33-1.98-0.66-3-1-0.99 2.31-1.98 4.62-3 7-1.8031-3.6061-1.0322-8.0743-0.96094-12.059 0.038268-3.4632 0.069398-6.6333-1.0391-9.9414z" fill="#0D0B1A"/>
<path transform="translate(237,403)" d="m0 0h3l1 4 3.75 0.375c2.5051 0.25051 4.013 0.47811 6.1719 1.8164 2.1648 1.102 2.1648 1.102 4.7344-0.125 0.93844-0.49629 1.8769-0.99258 2.8438-1.5039 5.0067-2.634 5.0067-2.634 7.8438-2.2227 0.54656 0.21785 1.0931 0.4357 1.6562 0.66016-16.08 8.305-16.08 8.305-22.059 7.8398-4.2353-1.8322-6.672-5.9797-8.9414-9.8398v-1z" fill="#5CCAA6"/>
<path transform="translate(228,386)" d="m0 0c2.9605 3.3642 3.9229 6.6916 5 11l-4 1v5h-2l-1 2c-1.6875-1.9375-1.6875-1.9375-3-5 0.63317-3.1553 1.7439-6.0434 3-9h2v-5z" fill="#0A1722"/>
<path transform="translate(302,312)" d="m0 0 1 2c2.3216 0.40729 4.6569 0.74439 7 1v2c0.85852 0.26555 1.717 0.53109 2.6016 0.80469 3.4275 1.2056 6.5402 2.6678 9.7734 4.3203 1.0596 0.53883 2.1192 1.0777 3.2109 1.6328 0.79664 0.40992 1.5933 0.81984 2.4141 1.2422v1c-8.9231-1.2012-8.9231-1.2012-11-2l-1-3-8-1v-2l-5 2-1-8z" fill="#1F72D0"/>
<path transform="translate(398,327)" d="m0 0 2 1-2 5c-32.514 0.82556-32.514 0.82556-46-4v-1c9.41-0.18451 9.41-0.18451 14 1v2h32v-4z" fill="#256AA8"/>
<path transform="translate(90,228)" d="m0 0c3.375 0.25 3.375 0.25 7 1 1.3125 2 1.3125 2 2 4l2 1v2c-3.25 0.75-3.25 0.75-7 1-2.4375-1.625-2.4375-1.625-4-4-0.25-2.75-0.25-2.75 0-5z" fill="#161424"/>
<path transform="translate(293,347)" d="m0 0 4 2v2l4 1v2l3.1875 0.4375c2.9671 0.43777 5.8804 0.94055 8.8125 1.5625v2c1.2923 1.3731 2.6244 2.7103 4 4l-2 1c-1.8159-0.77271-1.8159-0.77271-3.9922-2.0195-0.78762-0.44537-1.5752-0.89074-2.3867-1.3496-0.82371-0.47631-1.6474-0.95262-2.4961-1.4434-1.6221-0.92378-3.2444-1.847-4.8672-2.7695-0.72042-0.41484-1.4408-0.82967-2.1831-1.2571-1.9975-1.1177-4.0192-2.1546-6.0747-3.1609v-4z" fill="#2F80AB"/>
<path transform="translate(330,229)" d="m0 0 1 4 4-1c2 3 2 3 1.8477 5.0156-1.0527 2.4643-2.1844 3.2775-4.4102 4.7344-0.64066 0.42797-1.2813 0.85594-1.9414 1.2969-0.74057 0.4718-0.74057 0.4718-1.4961 0.95312-0.026854-2.3124-0.046328-4.625-0.0625-6.9375-0.011602-1.2878-0.023203-2.5755-0.035156-3.9023 0.097656-3.1602 0.097656-3.1602 1.0977-4.1602z" fill="#0D0A18"/>
<path transform="translate(398,328)" d="m0 0v3c-3.1457 0.92503-5.9726 1.1288-9.2461 1.1328-1.0022 0.0012891-2.0045 0.0025781-3.0371 0.0039062-1.0409-0.0038672-2.0818-0.0077344-3.1543-0.011719-1.5556 0.0058008-1.5556 0.0058008-3.1426 0.011719-1.5053-0.0019336-1.5053-0.0019336-3.041-0.0039062-0.91193-0.0011279-1.8239-0.0022559-2.7634-0.003418-2.6294-0.13008-5.0516-0.54678-7.6155-1.1294v-1c1.2646 0.017402 1.2646 0.017402 2.5547 0.035156 1.0957 0.0090234 2.1914 0.018047 3.3203 0.027344 1.6358 0.017402 1.6358 0.017402 3.3047 0.035156 2.7721 0.099787 2.7721 0.099787 4.8203-1.0977 3.3477-0.070478 6.6835 0.003248 10.031 0.0625 3.0922-0.065099 4.8695-1.0625 7.9688-1.0625z" fill="#2886D7"/>
<path transform="translate(396,238)" d="m0 0c6.625-0.25 6.625-0.25 10 2v4c-3.8768 1.1929-6.9162 2-11 2-0.125-5.75-0.125-5.75 1-8z" fill="#282633"/>
<path transform="translate(90,170)" d="m0 0h1v34h-2c-1.1575-3.6218-1.0438-6.9188-0.91406-10.699 0.043828-1.291 0.087656-2.582 0.13281-3.9121 0.025781-0.66846 0.051562-1.3369 0.078125-2.0256 0.078248-2.0538 0.1452-4.1077 0.21094-6.1619 0.36314-10.072 0.36314-10.072 1.4922-11.201z" fill="#380037"/>
<path transform="translate(144,135)" d="m0 0-2 6h-4v3c-0.5543-0.20625-1.1086-0.4125-1.6797-0.625-3.059-0.49438-4.6461 0.35489-7.4453 1.625-2.6328 1.1875-2.6328 1.1875-4.875 2l-2-1c2.0894-1.1659 4.1804-2.3288 6.2734-3.4883 1.9035-1.0554 3.8044-2.1157 5.7031-3.1797 0.97711-0.5427 1.9542-1.0854 2.9609-1.6445 0.91652-0.51176 1.833-1.0235 2.7773-1.5508 2.2852-1.1367 2.2852-1.1367 4.2852-1.1367z" fill="#C95476"/>
<path transform="translate(186,384)" d="m0 0c5.625-0.25 5.625-0.25 9 2 2.6463-0.31218 2.6463-0.31218 5-1v5c1.98 0.66 3.96 1.32 6 2l-1 3c-4.0925-1.5385-7.8946-3.4414-11.75-5.5l-3.4844-1.8438c-2.7656-1.6562-2.7656-1.6562-3.7656-3.6562z" fill="#42A095"/>
<path transform="translate(268,294)" d="m0 0c6.9785 2.4156 13.44 5.6216 20 9v1c-0.59168-0.083789-1.1834-0.16758-1.793-0.25391-4.3064-0.55499-7.9626-0.97836-12.207 0.25391-0.43312-0.94875-0.86625-1.8975-1.3125-2.875-1.4805-3.3254-1.4805-3.3254-4.6875-5.125v-2z" fill="#2260D0"/>
<path transform="translate(147,173)" d="m0 0 1 3c-11.522 6.3349-11.522 6.3349-17 9v-2h2l0.1875-1.8125c1.1362-3.0589 2.9858-3.7379 5.8125-5.1875l-1-2c3.1964-1.0655 5.6575-1.0743 9-1z" fill="#E930B5"/>
<path transform="translate(207,392)" d="m0 0 2 1c1.8818 0.76231 1.8818 0.76231 4 1l4-2 1 9c-3.9901-0.55989-6.5255-1.7567-9.8125-4.0625-0.7902-0.54785-1.5804-1.0957-2.3945-1.6602-0.59168-0.42152-1.1834-0.84305-1.793-1.2773l3-2z" fill="#4DBDA8"/>
<path transform="translate(344,320)" d="m0 0 2 1-4 1v2l10 3v2c1.155 0.12375 2.31 0.2475 3.5 0.375 4.2835 0.52779 8.3335 1.509 12.5 2.625v1h-10v-2c-0.9075 0.04125-1.815 0.0825-2.75 0.125-3.1282-0.12032-4.6361-0.51647-7.25-2.125v-2l-8-1 1-5c0.99-0.33 1.98-0.66 3-1z" fill="#02173B"/>
<path transform="translate(363,176)" d="m0 0 2 1v19l4 1c0.042721 1.6661 0.040638 3.3338 0 5l-1 1h-5v-27z" fill="#E925CE"/>
<path transform="translate(196,188)" d="m0 0h2v2c0.81082 0.23848 1.6216 0.47695 2.457 0.72266 4.2998 1.5502 8.2052 3.565 12.23 5.7148 0.75861 0.3951 1.5172 0.7902 2.2988 1.1973 0.73025 0.38736 1.4605 0.77473 2.2129 1.1738 0.65831 0.34861 1.3166 0.69722 1.9949 1.0564 1.8881 1.1867 3.2947 2.5034 4.8059 4.135h-7l-2-5c-2.31-0.33-4.62-0.66-7-1v-2h-4l-1-2c-0.99-0.47438-1.98-0.94875-3-1.4375-3-1.5625-3-1.5625-4-4.5625z" fill="#36023A"/>
<path transform="translate(182.12 139.75)" d="m0 0c4.5618 0.050606 7.7811 1.1644 11.875 3.25l3.4375 1.6875 2.5625 1.3125v1c-5.75 0.125-5.75 0.125-8-1v-2h-15c0-4.4676 1.0609-4.1673 5.125-4.25z" fill="#F86283"/>
<path transform="translate(248,84)" d="m0 0c3 5.75 3 5.75 3 8h-4l-1-4-8 2v-2h-3l1-3c4.0528-0.98249 7.8386-1.0816 12-1z" fill="#F9B42B"/>
<path transform="translate(93,295)" d="m0 0h8l-1.5 1.1875c-1.9718 2.3825-1.5755 3.7911-1.5 6.8125l-2 3h-2v2h-2c-0.027242-1.4166-0.046505-2.8333-0.0625-4.25-0.011602-0.78891-0.023203-1.5778-0.035156-2.3906 0.093803-2.2663 0.46525-4.1883 1.0977-6.3594z" fill="#2468EC"/>
<path transform="translate(383,240)" d="m0 0c1.0296 3.3624 1.0713 6.3708 1 9.875-0.040776 4.1694 0.090811 8.0337 1 12.125h2l2 4h-4l-1-3c-0.99-0.33-1.98-0.66-3-1v6h-1v-6l-4-1 4-1-1-2 2-2 1 1c-0.011602-1.0596-0.023203-2.1192-0.035156-3.2109-0.0093785-1.388-0.018479-2.776-0.027344-4.1641-0.0083789-0.69867-0.016758-1.3973-0.025391-2.1172-0.025391-5.2812-0.025391-5.2812 1.0879-7.5078z" fill="#3B3946"/>
<path transform="translate(214,352)" d="m0 0h1c0.060586 1.3136 0.12117 2.6271 0.18359 3.9805 0.084439 1.7357 0.16909 3.4714 0.25391 5.207 0.039316 0.86432 0.078633 1.7286 0.11914 2.6191 0.20791 4.1742 0.56616 8.0998 1.4434 12.193 0.063714 1.603 0.086442 3.2084 0.0625 4.8125-0.0090234 0.7902-0.018047 1.5804-0.027344 2.3945-0.011602 0.59168-0.023203 1.1834-0.035156 1.793-2.4879-2.4879-2.5146-3.9404-3.0625-7.375-0.59678-3.8086-0.59678-3.8086-1.4878-7.5522-0.74983-3.456-0.0043007-6.8628 0.48779-10.323 0.099902-0.74508 0.1998-1.4902 0.30273-2.2578 0.24657-1.8316 0.50227-3.6621 0.75977-5.4922z" fill="#40A4B4"/>
<path transform="translate(311,119)" d="m0 0c3 1 3 1 4.1797 2.9492 1.16 4.3142 1.0315 8.419 0.94531 12.863-0.0090234 0.88365-0.018047 1.7673-0.027344 2.6777-0.02346 2.17-0.059328 4.3399-0.097656 6.5098-2.3549-3.5324-2.5138-5.8049-3-10-0.17576-1.322-0.35417-2.6436-0.53516-3.9648-0.17612-1.3242-0.3519-2.6484-0.52734-3.9727-0.090879-0.68385-0.18176-1.3677-0.27539-2.0723-0.22101-1.6634-0.4416-3.3268-0.66211-4.9902z" fill="#D86E73"/>
<path transform="translate(208,241)" d="m0 0h1v18c-2-1-2-1-3-2h-2v-7h-1v-6l2 1v3h2l1-7z" fill="#060414"/>
<path transform="translate(401,292)" d="m0 0v1h-5l-0.375 1.875c-0.625 2.125-0.625 2.125-2.625 4.125-2.2773 0.85156-2.2773 0.85156-4.9375 1.625-0.87527 0.26039-1.7505 0.52078-2.6523 0.78906-2.4102 0.58594-2.4102 0.58594-5.4102 0.58594v2l-4-1c1.2891-0.67155 2.5814-1.3371 3.875-2 0.7193-0.37125 1.4386-0.7425 2.1797-1.125 1.9453-0.875 1.9453-0.875 3.9453-0.875v-2c1.98-0.33 3.96-0.66 6-1v-2c3.4352-2.2901 4.9853-2.1784 9-2z" fill="#2754B5"/>
<path transform="translate(316,222)" d="m0 0h1c0.2423 5.3195 0.45717 10.639 0.64697 15.961 0.068358 1.8092 0.14413 3.6182 0.22754 5.4268 0.11877 2.6036 0.21061 5.2069 0.29736 7.8118 0.042519 0.8054 0.085038 1.6108 0.12885 2.4406 0.10776 4.0319-0.0072336 5.8855-2.1865 9.4102-2.1143 1.95-2.1143 1.95-4.1143 1.95v-5h4v-38z" fill="#DFDEE4"/>
<path transform="translate(357,261)" d="m0 0h1v7h22v1c-0.65073 0.025056-1.3015 0.050112-1.9719 0.075928-2.9471 0.11601-5.8938 0.23871-8.8406 0.36157-1.5362 0.058975-1.5362 0.058975-3.1035 0.11914-0.98291 0.041895-1.9658 0.083789-2.9785 0.12695-0.90597 0.036658-1.8119 0.073315-2.7454 0.11108-2.5106 0.12614-2.5106 0.12614-5.3601 1.2053v-2h-14l1-2 13 1 1-4 1-3z" fill="#52505A"/>
<path transform="translate(275,103)" d="m0 0 4 1 2 13c-0.99 0.33-1.98 0.66-3 1-1.425-3.99-2.4008-7.8053-3-12h-2c1-2 1-2 2-3z" fill="#FA9444"/>
<path transform="translate(110,196)" d="m0 0 2 1c-0.99 0.33-1.98 0.66-3 1v2l-3.4375 1.375c-3.6097 1.196-3.6097 1.196-4.5625 3.625-2.2852 0.63281-2.2852 0.63281-5.0625 1.125-0.9191 0.16758-1.8382 0.33516-2.7852 0.50781-1.0654 0.18176-1.0654 0.18176-2.1523 0.36719v-3l2.75-0.625c4.8914-1.3559 9.2215-3.8441 13.676-6.2305 1.2742-0.56654 1.2742-0.56654 2.5742-1.1445z" fill="#49084D"/>
<path transform="translate(176,336)" d="m0 0h1l1 33 2 1v8c-3.2966-3.2966-3.9487-6.1459-4.2271-10.781 3.1377e-4 -1.4547 0.011442-2.9094 0.031738-4.364 0.0028299-0.76979 0.0056598-1.5396 0.0085754-2.3327 0.011145-2.4453 0.036239-4.8901 0.061737-7.3353 0.010037-1.6634 0.019162-3.3268 0.027344-4.9902 0.021986-4.0659 0.056476-8.1315 0.097656-12.197z" fill="#4094BC"/>
<path transform="translate(127,343)" d="m0 0 2 1v7c-5.583-0.76131-9.1714-1.7885-13-6l4-1v2l3.375-1.5625 3.625-1.4375z" fill="#2B97CF"/>
<path transform="translate(188,244)" d="m0 0h1c0.026851 2.4792 0.046765 4.9582 0.0625 7.4375 0.0083789 0.70705 0.016758 1.4141 0.025391 2.1426 0.0086453 1.8069-0.035691 3.6138-0.087891 5.4199-1.5789 1.5789-3.1929 1.2832-5.375 1.375-2.4531-0.015625-2.4531-0.015625-4.625-0.375-2.125-2.375-2.125-2.375-3-5l1-2 2.25 1.375c1.6376 0.96766 3.2987 1.8993 5 2.75 1.75 0.875 1.75 0.875 2.75 1.875l1-15z" fill="#2C2B36"/>
<path transform="translate(249,81)" d="m0 0c3.0353 2.3601 3.3191 4.3037 4 8l2 1h-3c-0.55688-0.99-1.1138-1.98-1.6875-3-0.76312-0.99-1.5262-1.98-2.3125-3-5.2758-0.68075-9.0321 0.035934-14 2-0.99 0.33-1.98 0.66-3 1 1-3 1-3 4-5 4.3885-1.2907 9.4712-1.7124 14-1z" fill="#251103"/>
<path transform="translate(78,242)" d="m0 0 4 4-1 3c-0.99 0.33-1.98 0.66-3 1l3 2c-5.4114 0.36076-5.4114 0.36076-7.9375-1.1875-1.0625-1.8125-1.0625-1.8125-0.75-4.5 0.22688-0.76312 0.45375-1.5262 0.6875-2.3125l1 2h2l2-4z" fill="#161324"/>
<path transform="translate(294,236)" d="m0 0 5 1c-0.45082 1.4607-0.91094 2.9185-1.375 4.375-0.25523 0.81211-0.51047 1.6242-0.77344 2.4609-0.85156 2.1641-0.85156 2.1641-2.8516 4.1641l-3-3 3-9z" fill="#100E1D"/>
<path transform="translate(102,234)" d="m0 0h8l3 6c-5.75 1-5.75 1-8 1v-4c-0.99-0.33-1.98-0.66-3-1v-2z" fill="#151322"/>
<path transform="translate(142,179)" d="m0 0v4c-2.2444 1.0352-4.4941 2.0531-6.75 3.0625-0.95133 0.44183-0.95133 0.44183-1.9219 0.89258-4.7791 2.1157-4.7791 2.1157-7.7812 1.7285-0.51047-0.22559-1.0209-0.45117-1.5469-0.68359 0.90363-0.48211 1.8073-0.96422 2.7383-1.4609 1.1914-0.63794 2.3829-1.276 3.5742-1.9141 0.5949-0.31711 1.1898-0.63422 1.8027-0.96094 8.6965-4.6641 8.6965-4.6641 9.8848-4.6641z" fill="#3B063C"/>
<path transform="translate(226,176)" d="m0 0c0.99 0.33 1.98 0.66 3 1v21h-1l-0.4375-3.4375c-0.17421-3.3703-0.17421-3.3703-1.5625-4.5625-0.072717-2.3531-0.083709-4.7083-0.0625-7.0625 0.0090234-1.2904 0.018047-2.5807 0.027344-3.9102 0.011602-0.99902 0.023203-1.998 0.035156-3.0273z" fill="#F821CB"/>
<path transform="translate(132,166)" d="m0 0c3.5761 0.62166 6.7627 1.5751 10.125 2.9375 0.8482 0.33902 1.6964 0.67805 2.5703 1.0273 2.3047 1.0352 2.3047 1.0352 5.3047 3.0352v2c-7.3825-0.87742-12.571-2.7984-18-8v-1z" fill="#E63BAA"/>
<path transform="translate(269,336)" d="m0 0c2.7628 0.52268 5.3261 1.1087 8 2v2l3.8125 0.125c2.207 0.25391 2.207 0.25391 4.1875 0.875 2 3.0625 2 3.0625 3 6-3.8209-1.4761-7.5067-3.1405-11.188-4.9375-1.0454-0.50402-2.0909-1.008-3.168-1.5273-2.6445-1.5352-2.6445-1.5352-4.6445-4.5352z" fill="#2F81B7"/>
<path transform="translate(129,294)" d="m0 0v5l-1-3-2.6875 0.9375c-2.7796 0.89157-5.4439 1.5563-8.3125 2.0625l-1 3-4-1c5.6245-6.1477 8.6201-7.1949 17-7z" fill="#2C68E6"/>
<path transform="translate(396,253)" d="m0 0h9l1 4c1.9838 1.2844 1.9838 1.2844 4 2-1.7701 0.081141-3.5412 0.13926-5.3125 0.1875-0.98613 0.034805-1.9723 0.069609-2.9883 0.10547-2.6992-0.29297-2.6992-0.29297-4.5547-1.6172-1.1445-1.6758-1.1445-1.6758-1.1445-4.6758z" fill="#211F2A"/>
<path transform="translate(398,190)" d="m0 0h2c0.125 3.375 0.125 3.375 0 7l-2 2 1 2h-7c0.99-2.31 1.98-4.62 3-7h3v-4z" fill="#E823D4"/>
<path transform="translate(385,184)" d="m0 0h2c-0.52537 4.0681-1.614 6.176-4.375 9.1875-0.60586 0.67418-1.2117 1.3484-1.8359 2.043-2.6083 2.5798-4.0529 3.7695-7.7891 3.7695v-2h2l0.625-2.4375c0.45375-0.84562 0.9075-1.6912 1.375-2.5625 3.125-0.8125 3.125-0.8125 6-1 0.14438-0.78375 0.28875-1.5675 0.4375-2.375 0.5625-2.625 0.5625-2.625 1.5625-4.625z" fill="#D425B7"/>
<path transform="translate(160.31 128.88)" d="m0 0c1.0686 0.018047 2.1373 0.036094 3.2383 0.054688 0.80824 0.023203 1.6165 0.046406 2.4492 0.070312v1c-0.9958 0.02127-0.9958 0.02127-2.0117 0.042969-6.3884 0.34507-8.4663 1.3128-12.988 5.957-3.8125-0.1875-3.8125-0.1875-7-1 5.359-4.5934 9.226-6.2807 16.312-6.125z" fill="#BE5B63"/>
<path transform="translate(292.38 306.78)" d="m0 0c0.90492 0.38285 1.8098 0.7657 2.7422 1.1602 1.3651 0.57041 1.3651 0.57041 2.7578 1.1523 0.69867 0.30035 1.3973 0.6007 2.1172 0.91016v3c-0.99 0.33-1.98 0.66-3 1v-2l-3.375-0.375c-3.625-0.625-3.625-0.625-5.625-2.625v-2c2-1 2-1 4.3828-0.22266z" fill="#166AD7"/>
<path transform="translate(218,376)" d="m0 0c2.4647 2.4647 2.3854 3.5931 2.6875 7 0.086367 0.88688 0.17273 1.7738 0.26172 2.6875 0.050781 2.3125 0.050781 2.3125-0.94922 4.3125h2v6c-3.8558-3.8558-4.3208-7.3187-4.6875-12.688-0.086367-1.1589-0.17273-2.3177-0.26172-3.5117-0.016758-0.92426-0.033516-1.8485-0.050781-2.8008l1-1z" fill="#0B2730"/>
<path transform="translate(309,237)" d="m0 0 2 3c-0.4375 2.125-0.4375 2.125-1 4l1 1c0.040638 1.6662 0.042721 3.3339 0 5l-4-2-2 4h-2c1.6396-5.2327 3.3895-10.152 6-15z" fill="#1E1C2B"/>
<path transform="translate(264,89)" d="m0 0c2.6667 1.3333 5.3333 2.6667 8 4l-1 5h3l-1 5h-2c-2.3333-4.6667-4.6667-9.3333-7-14z" fill="#D5974B"/>
<path transform="translate(114,151)" d="m0 0-2 2 12 1v1c-5.94 0.33-11.88 0.66-18 1v-4c4.625-2.125 4.625-2.125 8-1z" fill="#39122E"/>
<path transform="translate(92,192)" d="m0 0c2 4 2 4 1.625 6.25l-0.625 1.75c0.60328-0.15598 1.2066-0.31195 1.8281-0.47266 0.79922-0.19465 1.5984-0.3893 2.4219-0.58984 0.78891-0.19723 1.5778-0.39445 2.3906-0.59766 2.4633-0.35482 4.0154-0.10862 6.3594 0.66016-4.7736 2.7139-8.3439 4.5656-14 4v-11z" fill="#D62AC6"/>
<path transform="translate(180,306)" d="m0 0c0.6875 1.6875 0.6875 1.6875 1 4-0.47438 0.64969-0.94875 1.2994-1.4375 1.9688-2.3186 4.498-2.1326 8.8504-2.25 13.844-0.03416 0.97904-0.06832 1.9581-0.10352 2.9668-0.082183 2.4068-0.15143 4.8132-0.20898 7.2207h-1c-0.028929-3.9583-0.046774-7.9166-0.0625-11.875-0.0083789-1.1279-0.016758-2.2559-0.025391-3.418-0.0032227-1.0764-0.0064453-2.1527-0.0097656-3.2617-0.0052368-0.995-0.010474-1.99-0.015869-3.0151 0.11353-2.4302 0.11353-2.4302 1.1135-4.4302h2l1-4z" fill="#2674CE"/>
<path transform="translate(176,306)" d="m0 0h2c-0.23771 1.2977-0.23771 1.2977-0.48022 2.6216-0.48868 3.1763-0.72039 6.2241-0.83618 9.4331-0.062842 1.6629-0.062842 1.6629-0.12695 3.3594-0.039316 1.1421-0.078633 2.2842-0.11914 3.4609-0.043184 1.1653-0.086367 2.3306-0.13086 3.5312-0.10566 2.8645-0.20776 5.729-0.30664 8.5938h-1c-0.024656-4.2541-0.042839-8.5083-0.054932-12.762-0.0050394-1.4482-0.011871-2.8965-0.020508-4.3447-0.012083-2.0776-0.017793-4.1551-0.022217-6.2327-0.0052368-1.2516-0.010474-2.5032-0.015869-3.7927 0.11353-2.8674 0.11353-2.8674 1.1135-3.8674z" fill="#02143E"/>
<path transform="translate(371,202)" d="m0 0h2v3c-9.2255 4.5923-9.2255 4.5923-15 4l4-1v-4c2.0508-0.22786 4.1016-0.45573 6.1523-0.68359 1.8591-0.13527 1.8591-0.13527 2.8477-1.3164z" fill="#0F041F"/>
<path transform="translate(360,341)" d="m0 0c7.92 0.33 15.84 0.66 24 1l-1 2c-0.58008-0.011602-1.1602-0.023203-1.7578-0.035156-4.542-0.052465-8.7693 0.11765-13.242 1.0352v-2h-8v-2z" fill="#2978A9"/>
<path transform="translate(328,326)" d="m0 0 8 1v1l8 2v4c-5.685-1.6457-10.767-4.2903-16-7v-1z" fill="#06183C"/>
<path transform="translate(386,204)" d="m0 0h16v2c-5.349 0.59199-10.609 1.1419-16 1v-3z" fill="#290636"/>
<path transform="translate(98,236)" d="m0 0c3.625 0.375 3.625 0.375 7 1v4l4-1-2 4-11-6 2-2z" fill="#282634"/>
<path transform="translate(254,91)" d="m0 0h3c3.4821 5.8219 6.1046 11.482 8 18h-2c-0.25395-0.68707-0.50789-1.3741-0.76953-2.082-0.34418-0.90105-0.68836-1.8021-1.043-2.7305-0.33645-0.89332-0.67289-1.7866-1.0195-2.707-1.1458-2.4334-2.2338-3.6724-4.168-5.4805-1.1875-2.6875-1.1875-2.6875-2-5z" fill="#220E06"/>
<path transform="translate(274.81 94.75)" d="m0 0c2.9758 1.167 5.51 2.5175 8.1875 4.25-3.7505 1.2502-6.4958 1.5432-10.25 0.1875-1.75-1.1875-1.75-1.1875-2.75-4.1875 2-1 2-1 4.8125-0.25z" fill="#E3973C"/>
<path transform="translate(299,258)" d="m0 0 2 3 2-2c-0.50057 4.38-1.9319 6.8417-5 10h-3c0.47731-1.4589 0.95691-2.9171 1.4375-4.375 0.26684-0.81211 0.53367-1.6242 0.80859-2.4609 0.75391-2.1641 0.75391-2.1641 1.7539-4.1641z" fill="#23212E"/>
<path transform="translate(393,195)" d="m0 0 1 2-1 3c2.97 0.495 2.97 0.495 6 1v2h-11c2.25-5.625 2.25-5.625 5-8z" fill="#CB27C1"/>
<path transform="translate(315,184)" d="m0 0h1c0.72936 3.0434 1.2357 5.8672 1 9-1.7611 2.3734-3.4524 3.3883-6 5l-2-1c0.34934-0.60328 0.69867-1.2066 1.0586-1.8281 0.68256-1.1988 0.68256-1.1988 1.3789-2.4219 0.45246-0.78891 0.90492-1.5778 1.3711-2.3906 1.0845-2.1477 1.7229-4.0114 2.1914-6.3594z" fill="#160123"/>
<path transform="translate(240,410)" d="m0 0c0.56848 0.32613 1.137 0.65227 1.7227 0.98828 4.9528 2.2003 11.14 1.3376 16.277 0.011719-1 2-1 2-4 3.125-4.3223 1.1502-8.5596 1.0562-13 0.875l-1-5z" fill="#143D37"/>
<path transform="translate(354,316)" d="m0 0v2c-0.99 0.33-1.98 0.66-3 1l-1 2-3 2 2 3-7-2v-2c0.99-0.33 1.98-0.66 3-1l2-3c2.4438-1.1608 4.2829-2 7-2z" fill="#236DBB"/>
<path transform="translate(151,175)" d="m0 0v3c-2.25 2.25-2.25 2.25-5 4-2.3125-0.25-2.3125-0.25-4-1v-3c5.625-3 5.625-3 9-3z" fill="#280530"/>
<path transform="translate(248,84)" d="m0 0c3.8665 3.2221 4.8806 6.1492 6 11l-5 1-1-4h3l-2-3v-3l-4-1c0.99-0.33 1.98-0.66 3-1z" fill="#E8A335"/>
<path transform="translate(329,250)" d="m0 0c3.2542 2.8343 4.5207 4.6861 5 9l-5 1v-10z" fill="#1A1921"/>
<path transform="translate(276,391)" d="m0 0c6.75 2.875 6.75 2.875 9 4v2l-8 4-2-2h3v-2h3v-2h-2v-2h-3v-2z" fill="#4FAE9F"/>
<path transform="translate(306,355)" d="m0 0c2.31 0.33 4.62 0.66 7 1v2c1.2923 1.3731 2.6244 2.7103 4 4l-2 1c-2.1641-0.99609-2.1641-0.99609-4.625-2.4375-0.81727-0.47309-1.6345-0.94617-2.4766-1.4336-0.62648-0.37254-1.253-0.74508-1.8984-1.1289v-3z" fill="#358FAD"/>
<path transform="translate(109,304)" d="m0 0c0.67578 1.8125 0.67578 1.8125 1 4-1.1445 1.5625-1.1445 1.5625-2.8125 3-2.3803 2.1759-4.0075 3.932-5.1875 7h-2c1.4967-4.4901 3.8337-8.4785 7-12h2v-2z" fill="#2161B8"/>
<path transform="translate(263,294)" d="m0 0h5v2l-3 2c-0.38385 2.936-0.60384 5.6803-0.6875 8.625-0.03416 0.8018-0.06832 1.6036-0.10352 2.4297-0.082553 1.9813-0.14744 3.9633-0.20898 5.9453h-1v-21z" fill="#236AE7"/>
<path transform="translate(78.562 251.94)" d="m0 0 3.4375 0.0625-1 2h-2l-2 4-1-1-1 10h-1c-0.026854-2.3124-0.046328-4.625-0.0625-6.9375-0.011602-1.2878-0.023203-2.5755-0.035156-3.9023 0.12803-4.1431 0.12803-4.1431 4.6602-4.2227z" fill="#ABAAB2"/>
<path transform="translate(155,236)" d="m0 0 4 1-1 20-2 1c0.017402-1.8795 0.017402-1.8795 0.035156-3.7969 0.0093809-1.651 0.018481-3.3021 0.027344-4.9531 0.0083789-0.825 0.016758-1.65 0.025391-2.5 0.004834-1.1988 0.004834-1.1988 0.0097656-2.4219 0.0052368-0.73315 0.010474-1.4663 0.015869-2.2217-0.11601-2.1526-0.52279-4.0379-1.1135-6.1064z" fill="#5E5D65"/>
<path transform="translate(250,376)" d="m0 0c1.7514 0.45295 3.5011 0.91259 5.25 1.375 1.4618 0.38285 1.4618 0.38285 2.9531 0.77344 2.4552 0.74755 4.553 1.6228 6.7969 2.8516v3c-3.6556-0.68761-6.5187-2.2545-9.75-4.0625-0.98484-0.54785-1.9697-1.0957-2.9844-1.6602-0.74766-0.42152-1.4953-0.84305-2.2656-1.2773v-1z" fill="#0B2B39"/>
<path transform="translate(352,360)" d="m0 0v3c-4.7736 2.7139-8.3439 4.5656-14 4 2.4848-1.6565 4.9636-3.1607 7.5625-4.625 0.78504-0.44602 1.5701-0.89203 2.3789-1.3516 2.0586-1.0234 2.0586-1.0234 4.0586-1.0234z" fill="#072338"/>
<path transform="translate(101,298)" d="m0 0 1 2 2 1h-4l-0.25 2.375c-0.75 2.625-0.75 2.625-2.8125 3.9375l-1.9375 0.6875v2h-2l1-4h2l0.8125-2.3125c1.1317-2.5613 2.0997-3.8844 4.1875-5.6875z" fill="#071C51"/>
<path transform="translate(185,298)" d="m0 0 1 3c-1.8125 2.6875-1.8125 2.6875-4 5h-2l-2 4c0.37426-5.3644 1.996-7.4965 6-11l1-1z" fill="#205BBD"/>
<path transform="translate(235,117)" d="m0 0c4.9721 1.7643 9.4344 4.3939 14 7l-1 2c-9.7525-4.7674-9.7525-4.7674-13-7v-2z" fill="#210909"/>
<path transform="translate(248,83)" d="m0 0v1c-1.2298 0.14695-1.2298 0.14695-2.4844 0.29688-1.6165 0.2243-1.6165 0.2243-3.2656 0.45312l-3.2344 0.42188c-3.1336 0.59318-3.1336 0.59318-5.1562 2.9688l-1.8594 1.8594c-2.25-0.25-2.25-0.25-4-1 6.8104-5.3188 11.452-6.1449 20-6z" fill="#C28F36"/>
<path transform="translate(393,176)" d="m0 0h1c-0.013002 3.1009-0.15597 6.0061-1 9-3.0625 2.0625-3.0625 2.0625-6 3 1.5664-4.3076 3.6834-8.0617 6-12z" fill="#450841"/>
<path transform="translate(266,120)" d="m0 0h1v13c-5.625-1.125-5.625-1.125-8-4h6l1-9z" fill="#BE6568"/>
<path transform="translate(288,106)" d="m0 0 8 1v3c-2.8923 0.82638-4.8874 1-8 1v-5z" fill="#F99045"/>
<path transform="translate(82,216)" d="m0 0 2 1c-1.559 3.8268-4.0317 6.1801-7 9l-2 2-1-4h2l0.875-1.875c1.3384-2.528 3.1095-4.1095 5.125-6.125z" fill="#110F1C"/>
<path transform="translate(162,170)" d="m0 0c4.8275 1.4129 8.7162 3.4297 13 6l-4 1v-2l-2.8125 0.1875c-3.1875-0.1875-3.1875-0.1875-5.0625-1.5625-1.125-1.625-1.125-1.625-1.125-3.625z" fill="#380731"/>
<path transform="translate(232,92)" d="m0 0v3l-2.3125-0.6875c-0.88688-0.10312-1.7738-0.20625-2.6875-0.3125-1.8355 1.3338-1.8355 1.3338-3 3l-4-2c1.2418-0.70226 2.4939-1.3863 3.75-2.0625 1.0441-0.57428 1.0441-0.57428 2.1094-1.1602 2.502-0.90858 3.6739-0.66071 6.1406 0.22266z" fill="#F8A428"/>
<path transform="translate(224,91)" d="m0 0c-1.5902 3.1804-4.8442 3.7576-8 5-1.4541 0.58781-1.4541 0.58781-2.9375 1.1875-0.68062 0.26812-1.3612 0.53625-2.0625 0.8125 0.625-2.375 0.625-2.375 2-5 3.7297-1.7405 6.9101-2.2406 11-2z" fill="#2B150B"/>
<path transform="translate(265,88)" d="m0 0c4.8275 1.4129 8.7162 3.4297 13 6v2c-4.6129-1.318-8.1487-3.1339-12-6l-1-2z" fill="#2C1406"/>
<path transform="translate(222,397)" d="m0 0c1.8921 2.3857 3.0239 4.0718 4 7l2 1-1 3-7-4 2-7z" fill="#4BA290"/>
<path transform="translate(253,378)" d="m0 0c1.9422 0.9711 3.8841 1.9427 5.8242 2.918 1.86 0.92499 3.7352 1.8192 5.6133 2.707 2.5625 1.375 2.5625 1.375 3.5625 3.375h-3v-2c-0.88688-0.10312-1.7738-0.20625-2.6875-0.3125-3.4198-0.70977-5.5216-1.6142-8.3125-3.6875l-1-3z" fill="#47A4A1"/>
<path transform="translate(211,347)" d="m0 0c0.99 0.33 1.98 0.66 3 1v12l-2 1-1-14z" fill="#2C9ECD"/>
<path transform="translate(97,332)" d="m0 0h2v2c0.99-0.33 1.98-0.66 3-1 1.7075 1.2806 3.3737 2.6177 5 4 0.99 0.33 1.98 0.66 3 1-3.5508 1.1836-5.1005 0.96819-8.75-0.1875-3.25-1.8125-3.25-1.8125-4.1875-4l-0.0625-1.8125z" fill="#248AD5"/>
<path transform="translate(383,297)" d="m0 0h3v2l-13 6c2-4 2-4 5-6 2.6875-0.125 2.6875-0.125 5 0v-2z" fill="#02103F"/>
<path transform="translate(93,254)" d="m0 0h4v5h-7c1.875-3.875 1.875-3.875 3-5z" fill="#0B0819"/>
<path transform="translate(269,229)" d="m0 0 2 1c0.125 7.75 0.125 7.75-1 10h-2c-1.6073-3.2145-1.0575-6.4361-1-10l2-1z" fill="#171522"/>
<path transform="translate(179.69 227.38)" d="m0 0c0.70189 0.056719 1.4038 0.11344 2.127 0.17188 1.7293 0.14117 3.4576 0.29584 5.1855 0.45312v1c-2.6237 0.38847-5.2479 0.76125-7.875 1.125-0.74637 0.11215-1.4927 0.2243-2.2617 0.33984-1.9449 0.26282-3.9049 0.40681-5.8633 0.53516l-2-2c3.7651-2.5101 6.3946-2.0258 10.688-1.625z" fill="#272632"/>
<path transform="translate(373,148)" d="m0 0 5 2v2c2.97 0.495 2.97 0.495 6 1v2l2 1c-4.369-0.50803-7.457-1.3427-11-4-1.3125-2.1875-1.3125-2.1875-2-4z" fill="#C34A7F"/>
<path transform="translate(230,113)" d="m0 0c8.1875 0.94471 8.1875 0.94471 11 3 0.75 2.125 0.75 2.125 1 4-4.3076-1.5664-8.0617-3.6834-12-6v-1z" fill="#D07A59"/>
<path transform="translate(261,104)" d="m0 0c2.2881 2.2881 2.7545 3.8075 3.6875 6.875 0.27199 0.86367 0.54398 1.7273 0.82422 2.6172 0.50521 2.5948 0.34389 4.0386-0.51172 6.5078l-2-1c-0.63281-2.3633-0.63281-2.3633-1.125-5.3125-0.16758-0.96551-0.33516-1.931-0.50781-2.9258-0.36719-2.7617-0.36719-2.7617-0.36719-6.7617z" fill="#C57655"/>
<path transform="translate(186,384)" d="m0 0c5.75-0.125 5.75-0.125 8 1v2l2 1v2c-4.4309-1.2084-6.9811-2.5167-10-6z" fill="#3E9D9A"/>
<path transform="translate(180,373)" d="m0 0 2.8125 2.0625 3.1875 1.9375c0.99-0.33 1.98-0.66 3-1 0.99 0.33 1.98 0.66 3 1l-1.9375 0.375-2.0625 0.625-1 2c-3.2349-0.55774-4.9786-1.3721-7-4v-3z" fill="#38B7BA"/>
<path transform="translate(344,320)" d="m0 0 2 1-4 1v2l10 3c-3.297 1.099-4.4049 0.87124-7.6875 0.0625-0.80824-0.19465-1.6165-0.3893-2.4492-0.58984-0.61488-0.15598-1.2298-0.31195-1.8633-0.47266l1-5c0.99-0.33 1.98-0.66 3-1z" fill="#103264"/>
<path transform="translate(310,315)" d="m0 0 8 1v3h2v2c-3.4867-1.1094-6.7748-2.2634-10-4v-2z" fill="#031238"/>
<path transform="translate(90,293)" d="m0 0h1c0.060586 1.1808 0.12117 2.3616 0.18359 3.5781 0.084432 1.5573 0.16908 3.1146 0.25391 4.6719 0.039316 0.7773 0.078633 1.5546 0.11914 2.3555 0.041895 0.7541 0.083789 1.5082 0.12695 2.2852 0.036658 0.69126 0.073315 1.3825 0.11108 2.0947 0.21208 2.0809 0.65041 4.0004 1.2053 6.0146h-3v-21z" fill="#07215A"/>
<path transform="translate(105,269)" d="m0 0c-3.1748 2.1166-3.667 2.2293-7.2305 1.9766-0.80244-0.051562-1.6049-0.10312-2.4316-0.15625-1.2501-0.09668-1.2501-0.09668-2.5254-0.19531-1.2675-0.085078-1.2675-0.085078-2.5605-0.17188-2.0847-0.14133-4.1684-0.29596-6.252-0.45312v-1c14.781-1.3326 14.781-1.3326 21 0z" fill="#24222F"/>
<path transform="translate(199,259)" d="m0 0 1 4h-2l-2 5c-2.31 0.33-4.62 0.66-7 1 1.7976-2.0814 2.9169-2.9716 5.5625-3.875 2.6815-0.92978 2.6815-0.92978 3.75-3.75 0.22688-0.78375 0.45375-1.5675 0.6875-2.375z" fill="#3D3C46"/>
<path transform="translate(394,227)" d="m0 0v3c-5.1429 4-5.1429 4-9 4 0.6875-2.375 0.6875-2.375 2-5 2.4714-1.2975 4.2079-2 7-2z" fill="#100E1C"/>
<path transform="translate(386,188)" d="m0 0 1 2c-5.0941 7.6849-5.0941 7.6849-8.875 9h-2.125c0.95117-1.1725 1.9112-2.3379 2.875-3.5 0.80051-0.97453 0.80051-0.97453 1.6172-1.9688 0.49758-0.50531 0.99516-1.0106 1.5078-1.5312h2l2-4z" fill="#3E0442"/>
<path transform="translate(120,165)" d="m0 0c5.9899-0.31526 9.6356 0.3178 15 3-3.7177 1.2392-5.4389 0.57019-9.1875-0.4375-1.0867-0.28746-2.1734-0.57492-3.293-0.87109-0.83145-0.22816-1.6629-0.45633-2.5195-0.69141v-1z" fill="#E844A6"/>
<path transform="translate(224,363)" d="m0 0c6.625-0.25 6.625-0.25 10 2v2c-2.97-0.99-5.94-1.98-9-3v8h-1v-9z" fill="#092A3F"/>
<path transform="translate(371,307)" d="m0 0c-1.5807 0.81752-3.1647 1.6288-4.75 2.4375-0.88172 0.45246-1.7634 0.90492-2.6719 1.3711-2.2201 1.026-4.1926 1.7065-6.5781 2.1914v-2h3v-2c1.2661-0.53229 2.5381-1.0504 3.8125-1.5625 0.7077-0.29004 1.4154-0.58008 2.1445-0.87891 2.043-0.55859 2.043-0.55859 5.043 0.44141z" fill="#01123F"/>
<path transform="translate(117,299)" d="m0 0c0.99 0.33 1.98 0.66 3 1-0.6875 1.9375-0.6875 1.9375-2 4-1.6561 0.38219-3.3246 0.71395-5 1-1.7939 1.4579-1.7939 1.4579-3 3 0.1875-2.375 0.1875-2.375 1-5 2.5-1.1875 2.5-1.1875 5-2l1-2z" fill="#1C6DE8"/>
<path transform="translate(120,291)" d="m0 0h10v2c-3.96 0.66-7.92 1.32-12 2l-1-2h3v-2z" fill="#0A1448"/>
<path transform="translate(248,222)" d="m0 0 2 1c-2.8109 3.5605-5.2038 6.4692-9 9l-1-3 8-7z" fill="#DFDEE2"/>
<path transform="translate(165,168)" d="m0 0h8l1 5c-3.375-0.25-3.375-0.25-7-1-1.4375-2.0625-1.4375-2.0625-2-4z" fill="#F737B0"/>
<path transform="translate(188,141)" d="m0 0c3.0122 0.6445 5.5166 1.6502 8.25 3.0625 0.70641 0.36223 1.4128 0.72445 2.1406 1.0977 0.53109 0.27715 1.0622 0.5543 1.6094 0.83984v1c-5.75 0.125-5.75 0.125-8-1v-2l-4-1v-2z" fill="#C65479"/>
<path transform="translate(233,397)" d="m0 0c2.9149 2.6234 4.885 5.7182 7 9l-1 2c-2.4375-1.5625-2.4375-1.5625-5-4-0.8125-3.75-0.8125-3.75-1-7z" fill="#0A2C2F"/>
<path transform="translate(97,322)" d="m0 0c1 3 1 3 0.5 5.875-0.49669 3.1043-0.29604 5.1177 0.5 8.125-2.0625-1.5625-2.0625-1.5625-4-4 0.14853-4.2331 0.64068-6.461 3-10z" fill="#2972B6"/>
<path transform="translate(92,299)" d="m0 0 1 3h5l-2 4h-2v2h-2v-9z" fill="#216AD8"/>
<path transform="translate(262,291)" d="m0 0c7.5329-0.37047 7.5329-0.37047 9.8125 1.4375 0.39188 0.51562 0.78375 1.0312 1.1875 1.5625 0.99 0.33 1.98 0.66 3 1v2c-6.75-1.75-6.75-1.75-9-4-2.5706-0.64768-2.5706-0.64768-5-1v-1z" fill="#030D3B"/>
<path transform="translate(90,228)" d="m0 0c2.31 0.33 4.62 0.66 7 1l-2 1v2l-4 2c-1-1-1-1-1.0625-3.5625l0.0625-2.4375z" fill="#080614"/>
<path transform="translate(146,226)" d="m0 0c0.99 0.33 1.98 0.66 3 1l-1 2h3v2c-0.81211-0.24557-0.81211-0.24557-1.6406-0.49609-2.7616-0.58981-5.2876-0.6-8.1094-0.56641-0.98484 0.0090234-1.9697 0.018047-2.9844 0.027344-1.1215 0.017402-1.1215 0.017402-2.2656 0.035156 2.7593-2.7593 5.2115-2.5178 9-3l1-1z" fill="#494754"/>
<path transform="translate(202,191)" d="m0 0c2.31 0.33 4.62 0.66 7 1v2h5l1 4c-4.498-1.6867-8.7289-3.8167-13-6v-1z" fill="#BE25AE"/>
<path transform="translate(314,173)" d="m0 0h1v13l-2-1c-0.41406-2.0664-0.41406-2.0664-0.625-4.5625-0.074766-0.82629-0.14953-1.6526-0.22656-2.5039-0.048984-0.63809-0.097969-1.2762-0.14844-1.9336h2v-3z" fill="#F62CC0"/>
<path transform="translate(120,148)" d="m0 0v2h-2l-1 3c-2.31 0.33-4.62 0.66-7 1 5.6-6 5.6-6 10-6z" fill="#C74E83"/>
<path transform="translate(313,123)" d="m0 0c2.2806 3.4209 2.2193 4.6819 2.125 8.6875-0.018047 0.99387-0.036094 1.9877-0.054688 3.0117-0.034805 1.1389-0.034805 1.1389-0.070312 2.3008-2.0856-3.1284-2.3639-4.4862-2.6875-8.125-0.086367-0.88945-0.17273-1.7789-0.26172-2.6953-0.016758-0.7193-0.033516-1.4386-0.050781-2.1797l1-1z" fill="#FA7371"/>
<path transform="translate(393,299)" d="m0 0-1 3c-0.99 0.33-1.98 0.66-3 1v-2l-6 3v-3c3.5078-1.6036 6.1435-2.2204 10-2z" fill="#1E69EC"/>
<path transform="translate(124,189)" d="m0 0v2c-1.5312 1.2891-1.5312 1.2891-3.5 2.625-0.64969 0.44602-1.2994 0.89203-1.9688 1.3516-0.75797 0.5066-0.75797 0.5066-1.5312 1.0234l-3-2c1.2881-0.83878 2.5806-1.6709 3.875-2.5 0.7193-0.46406 1.4386-0.92812 2.1797-1.4062 1.9453-1.0938 1.9453-1.0938 3.9453-1.0938z" fill="#3D0442"/>
<path transform="translate(196,187)" d="m0 0c4.6875 0.78125 4.6875 0.78125 9.375 1.5625l2.625 0.4375-1 3c-4.455-0.99-4.455-0.99-9-2v-2l-2-1z" fill="#D921B9"/>
<path transform="translate(278,108)" d="m0 0h2l1 9c-0.99 0.33-1.98 0.66-3 1l-1-1c0.089378-1.5252 0.24537-3.0468 0.4375-4.5625 0.10184-0.82629 0.20367-1.6526 0.30859-2.5039 0.083789-0.63809 0.16758-1.2762 0.25391-1.9336z" fill="#F9874E"/>
<path transform="translate(240,372)" d="m0 0c4.0528 1.2253 7.4436 2.6988 11 5-3 1-3 1-5.043 0.22266-0.7077-0.38285-1.4154-0.7657-2.1445-1.1602-0.71543-0.38027-1.4309-0.76055-2.168-1.1523-0.5427-0.30035-1.0854-0.6007-1.6445-0.91016v-2z" fill="#48A9B2"/>
<path transform="translate(225,364)" d="m0 0c4 1 4 1 7 3-1.9375 0.5625-1.9375 0.5625-4 1l-1-1-1 9h-1v-12z" fill="#3D8A9C"/>
<path transform="translate(374,343)" d="m0 0h7c-2.1742 2.5004-3.7305 3.4363-7 4v2h-2c0-3 0-3 2-5v-1z" fill="#3788B9"/>
<path transform="translate(263,328)" d="m0 0c2.6487 3.1967 4.9399 6.3949 7 10-2.375-0.1875-2.375-0.1875-5-1-1.8601-3.2773-2-5.166-2-9z" fill="#061D45"/>
<path transform="translate(334,330)" d="m0 0c5.0227 1.1818 8.0949 2.4499 12 6-4.5645-0.5434-7.9728-1.7946-12-4v-2z" fill="#2A78B9"/>
<path transform="translate(365,164)" d="m0 0h1c0.36923 7.5077 0.36923 7.5077-1.5 10l-1.5 1c-0.25-7.625-0.25-7.625 2-11z" fill="#F33AAC"/>
<path transform="translate(393,165)" d="m0 0 5 1c-0.75 5.75-0.75 5.75-3 8l-0.4375-3.375c-0.34622-3.4464-0.34622-3.4464-1.5625-5.625z" fill="#DA3A9B"/>
<path transform="translate(146,162)" d="m0 0c5.75 1.75 5.75 1.75 8 4-2.3125 0.625-2.3125 0.625-5 1l-3-2v-3z" fill="#1B031F"/>
<path transform="translate(148,162)" d="m0 0c2.97 0.33 5.94 0.66 9 1l1 4c-3.9121-1.1559-6.8745-2.3553-10-5z" fill="#C03B88"/>
<path transform="translate(136,157)" d="m0 0h8v2l4 1v2c-1.6272-0.45034-3.2517-0.91055-4.875-1.375-1.3574-0.38285-1.3574-0.38285-2.7422-0.77344-2.3828-0.85156-2.3828-0.85156-4.3828-2.8516z" fill="#C14180"/>
<path transform="translate(144,135)" d="m0 0-2 6-4-1v-3c3.75-2 3.75-2 6-2z" fill="#DA6075"/>
<path transform="translate(363,138)" d="m0 0c0.99 0.33 1.98 0.66 3 1 1.1875 3.0625 1.1875 3.0625 2 6l-4-1v-2h-2l1-4z" fill="#20061C"/>
<path transform="translate(348,336)" d="m0 0 12 4v1l-10-1v-2h-2v-2z" fill="#2E7BB1"/>
<path transform="translate(269,336)" d="m0 0c2.7628 0.52268 5.3261 1.1087 8 2 0.6875 2.0625 0.6875 2.0625 1 4-3.9367-1.3122-6.2272-2.9191-9-6z" fill="#2974AA"/>
<path transform="translate(189,293)" d="m0 0h5c-3.4568 2.7654-7.1434 4.8492-11 7l1-4 5-1v-2z" fill="#030F41"/>
<path transform="translate(92,293)" d="m0 0h14l-1 3c-0.99 0.33-1.98 0.66-3 1v-3h-10v-1z" fill="#3761C4"/>
<path transform="translate(73,244)" d="m0 0 1 2h2v5h5v1c-5.4114 0.36076-5.4114 0.36076-7.9375-1.1875-1.0625-1.8125-1.0625-1.8125-0.75-4.5 0.22688-0.76312 0.45375-1.5262 0.6875-2.3125z" fill="#100D1E"/>
<path transform="translate(176,238)" d="m0 0h10v1h-8l2 1v2l-4 2v-6z" fill="#2C2A36"/>
<path transform="translate(273,106)" d="m0 0h2c1.4226 3.8232 2.2404 6.9128 2 11l-2-1c-0.63281-2.2852-0.63281-2.2852-1.125-5.0625-0.16758-0.9191-0.33516-1.8382-0.50781-2.7852-0.12117-0.71027-0.24234-1.4205-0.36719-2.1523z" fill="#E18C5E"/>
<path transform="translate(216,392)" d="m0 0 2 3-1 3c-1.98-0.66-3.96-1.32-6-2 1.2554-2.5108 2.5006-2.8713 5-4z" fill="#41C9AD"/>
<path transform="translate(217,386)" d="m0 0c0.66667 1.3333 1.3333 2.6667 2 4l1.625 3.125c1.375 2.875 1.375 2.875 1.375 4.875h-2c-2.4169-4.2295-3.3483-7.1234-3-12z" fill="#53B9AA"/>
<path transform="translate(176,368)" d="m0 0 4 2v8c-2.2552-2.2552-2.9772-4.0048-4-7v-3z" fill="#3F9EAB"/>
<path transform="translate(118,295)" d="m0 0 2 1-4 6-4-1 6-6z" fill="#2657B5"/>
<path transform="translate(138,278)" d="m0 0h2c2.7622 2.7622 2.5786 5.2071 3 9-0.99 0.33-1.98 0.66-3 1l-2-10z" fill="#131021"/>
<path transform="translate(414,227)" d="m0 0h-2v2h2l1 5c-1.9375-0.8125-1.9375-0.8125-4-2l-1-3-2-2c3-1 3-1 6 0z" fill="#110F1C"/>
<path transform="translate(324,209)" d="m0 0v1c-2.31 0.33-4.62 0.66-7 1v2h-5v-3c3.9814-1.3271 7.8505-1.0692 12-1z" fill="#12101F"/>
<path transform="translate(216,200)" d="m0 0c3.6875 0.49832 5.6049 1.1007 8 4h-7l-1-4z" fill="#23022F"/>
<path transform="translate(388,176)" d="m0 0h2l-2 10c-2-2-2-2-2.25-4.4375 0.25-2.5625 0.25-2.5625 2.25-5.5625z" fill="#F728C2"/>
<path transform="translate(237,403)" d="m0 0h3l0.3125 1.9375 0.6875 2.0625c0.99 0.33 1.98 0.66 3 1l1 3h-3c-1.3867-1.75-1.3867-1.75-2.6875-4-0.43699-0.7425-0.87398-1.485-1.3242-2.25-0.32613-0.5775-0.65227-1.155-0.98828-1.75z" fill="#55C0A0"/>
<path transform="translate(197,391)" d="m0 0 8 4-1 2c-2.0625 0.625-2.0625 0.625-4 1v-3l-3-2v-2z" fill="#02141E"/>
<path transform="translate(376,344)" d="m0 0c-3.1255 2.6447-6.0879 3.8441-10 5 2.3758-5.2608 4.3865-5.122 10-5z" fill="#2694D0"/>
<path transform="translate(203,234)" d="m0 0c3.9385 3.3231 3.9385 3.3231 4.25 6.75l-0.25 2.25-1-4h-3l-1 2v-3l-2-1 3-3z" fill="#050310"/>
<path transform="translate(368,213)" d="m0 0c-2.5721 1.6195-3.6767 2.0441-6.75 1.625l-2.25-0.625 1 6h-2v-7c3.6631-0.74926 6.4236-1.238 10 0z" fill="#BBB9C1"/>
<path transform="translate(366,145)" d="m0 0c3.4593 1.2492 6.1469 2.6753 9 5l-1 2c-6.875-3.625-6.875-3.625-8-7z" fill="#DD5B89"/>
<path transform="translate(244,87)" d="m0 0h5l2 5h-4l-0.375-1.9375-0.625-2.0625-2-1z" fill="#F9AD1B"/>
<path transform="translate(248.06 408.25)" d="m0 0c0.63938 0.2475 1.2788 0.495 1.9375 0.75l1 3c-2.375 0.1875-2.375 0.1875-5 0l-2-3c2-1 2-1 4.0625-0.75z" fill="#4BD8A3"/>
<path transform="translate(276,390)" d="m0 0c3.375 0.25 3.375 0.25 7 1 1.4375 2.0625 1.4375 2.0625 2 4-3.0831-1.199-6.0628-2.477-9-4v-1z" fill="#07272E"/>
<path transform="translate(246,372)" d="m0 0c1.98 0.66 3.96 1.32 6 2v3c-1.98-0.66-3.96-1.32-6-2v-3z" fill="#051826"/>
<path transform="translate(300,355)" d="m0 0c5.75 1.75 5.75 1.75 8 4-1.75 0.6875-1.75 0.6875-4 1-2.25-1.3125-2.25-1.3125-4-3v-2z" fill="#050E2A"/>
<path transform="translate(318,321)" d="m0 0c3.9121 1.1559 6.8745 2.3553 10 5-6.5004-0.61325-6.5004-0.61325-8.9375-2.5-1.0625-1.5-1.0625-1.5-1.0625-2.5z" fill="#2061A6"/>
<path transform="translate(98,316)" d="m0 0h2c-1.0907 3.7755-1.9083 6.4704-5 9-0.25533-3.0639-0.21861-4.6323 1.375-7.3125 0.80438-0.83531 0.80438-0.83531 1.625-1.6875z" fill="#021640"/>
<path transform="translate(290,277)" d="m0 0h1c0.25 2.3125 0.25 2.3125 0 5-1.8125 1.875-1.8125 1.875-4 3-0.99-0.33-1.98-0.66-3-1l1.875-1.8125c2.2618-2.1956 2.2618-2.1956 4.125-5.1875z" fill="#403F49"/>
<path transform="translate(272,239)" d="m0 0c3.0867 3.0867 3.4486 3.9193 4 8-0.99 0.33-1.98 0.66-3 1l-1-9z" fill="#181623"/>
<path transform="translate(234,229)" d="m0 0h4l-1 9c-3-3-3-3-3.1875-6.1875l0.1875-2.8125z" fill="#2F2D38"/>
<path transform="translate(92,163)" d="m0 0h7v1h-5l-0.375 1.875c-0.625 2.125-0.625 2.125-2.625 4.125l1-7z" fill="#35052E"/>
<path transform="translate(153,130)" d="m0 0c-6.75 4-6.75 4-9 4 0.8125-1.9375 0.8125-1.9375 2-4 3.1335-1.0445 3.9897-0.93424 7 0z" fill="#200511"/>
<path transform="translate(315,120)" d="m0 0c2.8005 3.1459 3.3526 5.0671 3.1875 9.25-0.02707 0.89203-0.054141 1.7841-0.082031 2.7031-0.034805 0.67547-0.069609 1.3509-0.10547 2.0469h-1c-0.22786-2.0508-0.45573-4.1016-0.68359-6.1523-0.13527-1.8591-0.13527-1.8591-1.3164-2.8477-0.040638-1.6662-0.042721-3.3339 0-5z" fill="#15040C"/>
<path transform="translate(224,108)" d="m0 0h3v3h5c-1.625 1.1875-1.625 1.1875-4 2-3.25-1.375-3.25-1.375-6-3l2-2z" fill="#D2814F"/>
<path transform="translate(277,99)" d="m0 0c2.97 0.495 2.97 0.495 6 1l1 3c-3.204 0-5.094-0.74335-8-2l1-2z" fill="#F99B35"/>
<path transform="translate(198,385)" d="m0 0 2 1-1 4-4-1v-3c0.99-0.33 1.98-0.66 3-1z" fill="#42C0B2"/>
<path transform="translate(270,338)" d="m0 0 8 4c-4 1-4 1-6.25 0.0625l-1.75-1.0625v-3z" fill="#01112C"/>
<path transform="translate(392,268)" d="m0 0 12 1v1h-9l-1 2-2-1v-3z" fill="#22212D"/>
<path transform="translate(414,265)" d="m0 0 2 1-2 4-8-1c2.6886-1.7924 4.9534-2.9845 8-4z" fill="#373641"/>
<path transform="translate(286,236)" d="m0 0c1.3333 0.66667 2.6667 1.3333 4 2l-1 6c-2.6239-3.0612-3-3.7317-3-8z" fill="#3A3842"/>
<path transform="translate(134,227)" d="m0 0v3l2 1-4 1v-3h-6v-1c5.75-1 5.75-1 8-1z" fill="#2D2C35"/>
<path transform="translate(123,226)" d="m0 0c2.31 0.33 4.62 0.66 7 1-3.4019 2.0935-6.0527 2.1794-10 2 0.99-0.33 1.98-0.66 3-1v-2z" fill="#040210"/>
<path transform="translate(246.25 221.88)" d="m0 0 1.75 1.125-5 3-3-3c3.4462-2.2154 3.4462-2.2154 6.25-1.125z" fill="#181624"/>
<path transform="translate(371,202)" d="m0 0h2v3c-3.8176 1.3743-7.0726 0.67975-11 0v-1c2.0508-0.22786 4.1016-0.45573 6.1523-0.68359 1.8591-0.13527 1.8591-0.13527 2.8477-1.3164z" fill="#390544"/>
<path transform="translate(91,204)" d="m0 0h8l-1 2c-2.3216 0.40729-4.6569 0.74439-7 1v-3z" fill="#250231"/>
<path transform="translate(110,196)" d="m0 0 2 1c-0.99 0.33-1.98 0.66-3 1v2c-3 2-3 2-5.1875 1.625l-1.8125-0.625c0.99-0.33 1.98-0.66 3-1l2-3c0.99-0.33 1.98-0.66 3-1z" fill="#33023A"/>
<path transform="translate(137,158)" d="m0 0c2.97 0.99 5.94 1.98 9 3v1c-2.97-0.33-5.94-0.66-9-1v-3z" fill="#24021E"/>
<path transform="translate(384,156)" d="m0 0 5 1 1 3h-5l-1-4z" fill="#F44D99"/>
<path transform="translate(215,104)" d="m0 0c3.3437 0.55729 6.0331 1.3517 9 3v2c-3.7755-1.0907-6.4704-1.9083-9-5z" fill="#EF9859"/>
<path transform="translate(205,97)" d="m0 0 5 1v2h-2v2h-3v-5z" fill="#2A1A1C"/>
<path transform="translate(187,299)" d="m0 0 5 1-1 2c-2.3216 0.40729-4.6569 0.74439-7 1 0.99-1.32 1.98-2.64 3-4z" fill="#1D6AEB"/>
<path transform="translate(273,296)" d="m0 0 9 4c-4.294 1.0735-5.195 0.79683-9-1v-3z" fill="#2754B5"/>
<path transform="translate(396,293)" d="m0 0h5v6l-1-3c-2.0151-0.73324-2.0151-0.73324-4-1v-2z" fill="#3565D5"/>
<path transform="translate(289,246)" d="m0 0 5 4-1 4h-2l-2-8z" fill="#212028"/>
<path transform="translate(309,237)" d="m0 0 2 3c-0.8125 1.9375-0.8125 1.9375-2 4-0.99 0.33-1.98 0.66-3 1 1.875-6.875 1.875-6.875 3-8z" fill="#363541"/>
<path transform="translate(335,234)" d="m0 0 2 1c-0.3125 1.875-0.3125 1.875-1 4l-3 2v-6l2-1z" fill="#22212E"/>
<path transform="translate(357,214)" d="m0 0h1v6l4 1v2c-1.98-0.66-3.96-1.32-6-2l1-7z" fill="#1C1B26"/>
<path transform="translate(112,218)" d="m0 0-1 4v-2c-2.31-0.33-4.62-0.66-7-1 3.0675-1.8624 4.5975-2.2152 8-1z" fill="#33323E"/>
<path transform="translate(377,192)" d="m0 0h1c0.125 2.375 0.125 2.375 0 5l-2 2h-3v-2h2l2-5z" fill="#E026CA"/>
<path transform="translate(315,184)" d="m0 0h1v8l-4 2c0.99-3.3 1.98-6.6 3-10z" fill="#50054C"/>
<path transform="translate(94,165)" d="m0 0c0.99 0.33 1.98 0.66 3 1-0.8125 2.4375-0.8125 2.4375-2 5-0.99 0.33-1.98 0.66-3 1 0.875-4.75 0.875-4.75 2-7z" fill="#DB43A2"/>
<path transform="translate(132,166)" d="m0 0c3.8063 0.67171 7.3521 1.7275 11 3v1c-7.5077-0.61538-7.5077-0.61538-10-2.5625l-1-1.4375z" fill="#B23887"/>
<path transform="translate(212,154)" d="m0 0 7 3v3l-1-2c-2.5273-0.65555-2.5273-0.65555-5-1l-1-3z" fill="#D24C8F"/>
<path transform="translate(126,154)" d="m0 0c3.375-0.1875 3.375-0.1875 7 0l2 3c-6.75-0.75-6.75-0.75-9-3z" fill="#C54882"/>
<path transform="translate(166,130)" d="m0 0 10 3c-4 2-4 2-6 2v-2l-4-2v-1z" fill="#D86D72"/>
<path transform="translate(263,91)" d="m0 0c2.9932 1.0975 3.8461 1.6768 5.25 4.625 0.2475 0.78375 0.495 1.5675 0.75 2.375-2.9932-1.0975-3.8461-1.6768-5.25-4.625-0.2475-0.78375-0.495-1.5675-0.75-2.375z" fill="#32160A"/>
</svg>
